<?xml version="1.0" encoding="utf-8"?>
<!-- Generator: Adobe Illustrator 25.2.3, SVG Export Plug-In . SVG Version: 6.00 Build 0)  -->
<svg version="1.1" id="Layer_1" xmlns="http://www.w3.org/2000/svg" xmlns:xlink="http://www.w3.org/1999/xlink" x="0px" y="0px"
	 viewBox="0 0 24 24" style="enable-background:new 0 0 24 24;" xml:space="preserve">
<style type="text/css">
	.st0{fill:#EEEEEE;}
</style>
<path class="st0" d="M21.3,7.9c-0.4-0.2-0.7-0.2-1.1,0l-2.1,1.2V8.2c0-1.6-1.2-2.7-2.7-2.7H5C3.5,5.6,2.3,6.8,2.3,8.2v7.6
	c0,1.6,1.2,2.7,2.7,2.7h10.3c1.6,0,2.7-1.2,2.7-2.7v-0.9l2.1,1.2c0.4,0.2,0.7,0.2,1.1,0c0.4-0.2,0.5-0.5,0.5-0.9V9.1
	C21.8,8.4,21.5,8.1,21.3,7.9z M9.2,14.2V9.6l3.8,2.3L9.2,14.2z"/>
</svg>
