<?xml version="1.0" encoding="utf-8"?>
<!-- Generator: Adobe Illustrator 25.2.3, SVG Export Plug-In . SVG Version: 6.00 Build 0)  -->
<svg version="1.1" id="Layer_1" xmlns="http://www.w3.org/2000/svg" xmlns:xlink="http://www.w3.org/1999/xlink" x="0px" y="0px"
	 viewBox="0 0 24 24" style="enable-background:new 0 0 24 24;" xml:space="preserve">
<style type="text/css">
	.st0{fill:#EEEEEE;}
</style>
<g>
	<path d="M-15.1-8.6c-0.3-0.2-0.6-0.1-0.9,0l-1.8,1v-0.8c0-1.3-1.1-2.4-2.4-2.4h-9c-1.3,0-2.4,1.1-2.4,2.4v6.5
		c0,1.3,1.1,2.4,2.4,2.4h9c1.3,0,2.4-1.1,2.4-2.4v-0.8l1.8,1c0.3,0.2,0.7,0.2,0.9,0c0.3-0.2,0.4-0.5,0.4-0.8v-5.4
		C-14.6-8.1-14.8-8.4-15.1-8.6z"/>
	<path class="st0" d="M-23.1-5.4c0.4,0.2,0.4,0.5,0,0.7l-0.4,0.2c-0.4,0.2-0.9,0.5-1.3,0.7l-0.4,0.2c-0.4,0.2-0.6,0-0.6-0.4v-0.5
		c0-0.4,0-1.1,0-1.5v-0.5c0-0.4,0.3-0.6,0.6-0.4l0.4,0.2c0.4,0.2,0.9,0.5,1.3,0.7L-23.1-5.4z"/>
</g>
<g>
	<g>
		<path class="st0" d="M4.2,18.1l0.9-0.9l0,0c-0.9,0-1.6-0.7-1.6-1.6V8.4C3.3,7.5,4.2,6.6,5.1,6.6h10.1c0.2,0,0.2,0,0.4,0l0.9-0.7
			c-0.4-0.2-0.7-0.4-1.3-0.4H5.1c-1.4,0-2.7,1.3-2.7,2.7v7.4C2.4,16.8,3.2,17.8,4.2,18.1z"/>
		<path class="st0" d="M21.2,8c-0.4-0.2-0.7-0.2-1.1,0l-2,1.1V8.4c0-0.2,0-0.5-0.2-0.7l-1.1,0.9v2.5l3.4-2v6l-3.4-2v2.9
			c0,0.9-0.7,1.6-1.6,1.6h-7l-1.1,1.1h8.1c1.4,0,2.7-1.3,2.7-2.7V15l2,1.1c0.4,0.2,0.7,0.2,1.1,0c0.4-0.2,0.5-0.5,0.5-0.9V9.1
			C21.6,8.5,21.4,8.2,21.2,8z"/>
	</g>
	<g>
		<g>
			<path class="st0" d="M3.5,21c-0.2,0-0.2,0-0.4-0.2c-0.2-0.2-0.2-0.5,0-0.7l17-17C20.3,3,20.7,3,21,3.1c0.2,0.2,0.2,0.5,0,0.7
				l-17,17C3.7,21,3.7,21,3.5,21z"/>
		</g>
	</g>
</g>
</svg>
