<?xml version="1.0" encoding="utf-8"?>
<!-- Generator: Adobe Illustrator 25.2.3, SVG Export Plug-In . SVG Version: 6.00 Build 0)  -->
<svg version="1.1" id="Layer_1" xmlns="http://www.w3.org/2000/svg" xmlns:xlink="http://www.w3.org/1999/xlink" x="0px" y="0px"
	 viewBox="0 0 24 24" style="enable-background:new 0 0 24 24;" xml:space="preserve">
<style type="text/css">
	.st0{fill:#EEEEEE;}
</style>
<path class="st0" d="M5.3,12.8C6.2,12,7.3,13,7.3,13l1.4,1.5V5.2c0-0.6,0.5-1.1,1.1-1.1l0,0c0.6,0,1.1,0.5,1.1,1.1v7h0.4V4.1
	c0-0.5,0.4-1,0.9-1.1c0.7-0.2,1.3,0.4,1.3,1.1v8.2h0.4V5.9c0-0.5,0.4-1,0.9-1.1c0.7-0.2,1.3,0.4,1.3,1.1v6.5h0.4V7.7
	c0-0.5,0.4-1,0.9-1.1C18.4,6.4,19,7,19,7.7v6.9l0,0c0,0,0,3.5-1.1,4.9c-1.3,1.5-4.2,1.4-4.2,1.4c-4,0-4.6-1.4-4.6-1.4
	c-0.4-1-1.3-2.2-1.3-2.2c-0.8-1.7-2.3-2.7-2.3-2.7C4.5,13.7,5.3,12.8,5.3,12.8z"/>
</svg>
