<?xml version="1.0" encoding="utf-8"?>
<!-- Generator: Adobe Illustrator 25.2.3, SVG Export Plug-In . SVG Version: 6.00 Build 0)  -->
<svg version="1.1" id="Layer_2_1_" xmlns="http://www.w3.org/2000/svg" xmlns:xlink="http://www.w3.org/1999/xlink" x="0px" y="0px"
	 viewBox="0 0 24 24" style="enable-background:new 0 0 24 24;" xml:space="preserve">
<style type="text/css">
	.st0{fill:#333333;}
</style>
<path class="st0" d="M9,2.4C8.3,3.2,7.7,4.3,7.3,5.5c-0.2,0-0.4,0-0.6-0.1c-0.1,0-0.2-0.1-0.2-0.1C6,5.2,5.5,5,5.1,4.8l0,0
	C6.2,3.7,7.5,2.9,9,2.4z M4.3,5.6c0.1,0,0.2,0.1,0.2,0.1c0.1,0.1,0.2,0.1,0.4,0.2C5.1,6,5.2,6,5.4,6.1c0.1,0.1,0.3,0.1,0.4,0.2
	C6,6.4,6.1,6.4,6.3,6.5c0.1,0,0.3,0.1,0.4,0.1s0.1,0,0.2,0.1C6.5,8.2,6.2,10,6.2,11.9H2C2.1,9.5,2.9,7.3,4.3,5.6z M4.3,18.4
	C3,16.8,2.2,14.9,2,12.8h4.2c0.1,1.7,0.3,3.2,0.7,4.6L4.3,18.4z M5,19.2C5.1,19.2,5.1,19.2,5,19.2c0.5-0.2,1-0.4,1.4-0.5
	c0.1,0,0.2-0.1,0.2-0.1c0.2-0.1,0.4-0.1,0.6-0.1c0.5,1.3,1.1,2.4,1.8,3.2C7.5,21.1,6.2,20.3,5,19.2z M11.5,22
	c-1.3-0.3-2.4-1.7-3.2-3.8h0.1C8.9,18.1,9.5,18,10,18c0.1,0,0.1,0,0.2,0c0.4,0,0.8,0,1.2-0.1L11.5,22L11.5,22z M7.9,17.2
	c-0.4-1.3-0.6-2.8-0.7-4.3h4.2v3.9L7.9,17.2z M11.5,11.8H7.3c0-1.8,0.2-3.5,0.7-5c0.1,0,0.2,0,0.3,0.1C8.4,6.9,8.6,7,8.7,7
	c0.2,0,0.5,0,0.7,0.1c0.1,0,0.3,0,0.4,0.1c0.2,0,0.5,0,0.7,0.1c0.1,0,0.2,0,0.4,0s0.4,0,0.6,0C11.5,7.3,11.5,11.8,11.5,11.8z
	 M11.5,6.1c-0.4,0-0.8,0-1.2-0.1c-0.1,0-0.1,0-0.2,0C9.5,6,8.9,5.9,8.4,5.8H8.3c0.8-2.1,1.9-3.5,3.2-3.8C11.5,2,11.5,6.1,11.5,6.1z
	 M19.5,5.7c0.1,0,0.2-0.1,0.2-0.1c1.4,1.7,2.2,3.9,2.3,6.2h-4.2c0-1.9-0.3-3.6-0.7-5.2c0.1,0,0.1,0,0.2-0.1c0.1,0,0.3-0.1,0.4-0.1
	c0.2-0.1,0.3-0.1,0.5-0.2c0.1,0,0.3-0.1,0.4-0.2c0.2,0,0.3,0,0.5-0.1C19.2,5.8,19.4,5.8,19.5,5.7z M19,4.8C18.9,4.8,18.9,4.8,19,4.8
	c-0.5,0.2-1,0.4-1.4,0.5c-0.1,0-0.2,0.1-0.2,0.1c-0.2,0.1-0.4,0.1-0.6,0.1c-0.5-1.3-1.1-2.4-1.8-3.2C16.5,2.9,17.8,3.7,19,4.8z
	 M12.5,2c1.3,0.3,2.4,1.7,3.2,3.8h-0.1C15.1,5.9,14.5,6,14,6.1c-0.1,0-0.1,0-0.2,0c-0.4,0-0.8,0-1.2,0.1V2H12.5z M12.5,7.2
	c0.2,0,0.4,0,0.6,0c0.1,0,0.2,0,0.4,0s0.5,0,0.7-0.1c0.1,0,0.3,0,0.4-0.1c0.2,0,0.5,0,0.7,0c0.1,0,0.3-0.1,0.4-0.1
	c0.1,0,0.2,0,0.3-0.1c0.4,1.5,0.7,3.1,0.7,4.9h-4.2C12.5,11.7,12.5,7.2,12.5,7.2z M12.4,16.6v-3.8h0.1h4.2c-0.1,1.6-0.3,3-0.7,4.3
	L12.4,16.6z M12.5,22v-4.1c0.4,0,0.8,0,1.2,0.1c0.1,0,0.1,0,0.2,0c0.5,0.1,1.1,0.1,1.6,0.2h0.1C14.9,20.3,13.8,21.7,12.5,22z
	 M15,21.6c0.7-0.8,1.3-1.9,1.8-3.2c0.2,0.1,0.4,0.1,0.6,0.1c0.1,0,0.2,0.1,0.2,0.1c0.5,0.2,0.9,0.3,1.3,0.5l0,0
	C17.8,20.3,16.5,21.1,15,21.6z M17.1,17.4c0.4-1.4,0.6-2.9,0.7-4.6H22c-0.2,2-1,4-2.3,5.6L17.1,17.4z"/>
</svg>
