<?xml version="1.0" encoding="utf-8"?>
<!-- Generator: Adobe Illustrator 25.2.3, SVG Export Plug-In . SVG Version: 6.00 Build 0)  -->
<svg version="1.1" id="Layer_1" xmlns="http://www.w3.org/2000/svg" xmlns:xlink="http://www.w3.org/1999/xlink" x="0px" y="0px"
	 viewBox="0 0 24 24" style="enable-background:new 0 0 24 24;" xml:space="preserve">
<style type="text/css">
	.st0{fill:#EEEEEE;}
</style>
<g>
	<path class="st0" d="M11,17.2v2.6H9.4V21H11h2.1h1.6v-1.2h-1.6v-2.6c2.4-0.4,4.2-2.6,4.2-5.2c0-0.2-0.2-0.4-0.4-0.4
		c-0.2,0-0.4,0.2-0.4,0.4c0,2.4-2,4.4-4.4,4.4c-1,0-1.8-0.4-2.6-0.8l-0.6,0.6C9.6,16.6,10.4,17.1,11,17.2z"/>
	<path class="st0" d="M7.8,12c0-0.2-0.2-0.4-0.4-0.4c-0.2,0-0.4,0.2-0.4,0.4c0,1.2,0.4,2.1,1,2.9l0.6-0.6C8,13.7,7.8,12.9,7.8,12z"
		/>
	<path class="st0" d="M14.6,12c0,1.4-1.2,2.4-2.4,2.4c-0.4,0-0.8-0.2-1.2-0.4l-0.4,0.6c0.4,0.4,1.2,0.4,1.6,0.4
		c1.8,0,3.2-1.4,3.2-3.4V9.6l-0.8,0.8C14.6,10.4,14.6,12,14.6,12z"/>
	<path class="st0" d="M9.8,12V9.2V6.4c0-1.4,1.2-2.5,2.4-2.5s2.4,1.2,2.4,2.4v2.1l0.8-0.8V6.4C15.4,4.6,14,3,12.2,3S9,4.5,9,6.4v2.8
		V12c0,0.6,0.2,1.2,0.4,1.6l0.7-0.7C9.9,12.6,9.8,12.2,9.8,12z"/>
	<g>
		<g>
			<path class="st0" d="M5.7,18.7c-0.2,0-0.2,0-0.4-0.2c-0.2-0.2-0.2-0.4,0-0.6L18,5.4c0.2-0.2,0.4-0.2,0.6,0c0.2,0.2,0.2,0.4,0,0.6
				L6,18.7C5.9,18.7,5.9,18.7,5.7,18.7z"/>
		</g>
	</g>
</g>
</svg>
