<?xml version="1.0" encoding="utf-8"?>
<!-- Generator: Adobe Illustrator 25.2.3, SVG Export Plug-In . SVG Version: 6.00 Build 0)  -->
<svg version="1.1" id="Layer_1" xmlns="http://www.w3.org/2000/svg" xmlns:xlink="http://www.w3.org/1999/xlink" x="0px" y="0px"
	 viewBox="0 0 24 24" style="enable-background:new 0 0 24 24;" xml:space="preserve">
<style type="text/css">
	.st0{fill:#EEEEEE;}
</style>
<g>
	<g>
		<path class="st0" d="M16.9,11.8c-0.2,0-0.5,0.2-0.5,0.4c0,2.4-2,4.4-4.4,4.4s-4.4-2-4.4-4.4c0-0.2-0.2-0.4-0.5-0.4
			c-0.2,0-0.5,0.2-0.5,0.4c0,2.6,1.8,4.5,4.3,5.2v2.4H9.3V21H11H13h1.6v-1.2H13v-2.6c2.4-0.5,4.3-2.6,4.3-5.2
			C17.3,12,17.1,11.8,16.9,11.8z"/>
		<path class="st0" d="M12,15.1L12,15.1c-1.8,0-3.2-1.4-3.2-3.2V6.2C8.8,4.4,10.2,3,12,3H12c1.8,0,3.2,1.4,3.2,3.2v5.7
			C15.2,13.6,13.8,15.1,12,15.1z"/>
	</g>
	<path class="st0" d="M16.6,6.8l0.5,0.4c0.6-1,0.2-2.2-1-2.9l-0.4,0.5C16.6,5.2,17.1,6.2,16.6,6.8z"/>
	<path class="st0" d="M18.5,5c-0.4-0.8-0.8-1.6-1.6-2l-0.4,0.4c0.6,0.4,1.2,1,1.4,1.6c0.3,0.7,0.3,1.4-0.1,2.1l0.4,0.4
		C18.7,6.8,18.9,6,18.5,5z"/>
</g>
</svg>
