<?xml version="1.0" encoding="utf-8"?>
<!-- Generator: Adobe Illustrator 25.2.3, SVG Export Plug-In . SVG Version: 6.00 Build 0)  -->
<svg version="1.1" id="Layer_2_1_" xmlns="http://www.w3.org/2000/svg" xmlns:xlink="http://www.w3.org/1999/xlink" x="0px" y="0px"
	 viewBox="0 0 24 24" style="enable-background:new 0 0 24 24;" xml:space="preserve">
<style type="text/css">
	.st0{fill:#EEEEEE;}
</style>
<g>
	<circle class="st0" cx="8.4" cy="8.4" r="3.4"/>
	<circle class="st0" cx="16.7" cy="8.9" r="3"/>
	<g>
		<path class="st0" d="M16.6,18h5.6c0.4,0,0.6-0.4,0.6-0.7c-0.3-2.7-2.1-4.8-4.4-4.9c-0.5,0.4-1.2,0.5-1.8,0.5
			c-0.6,0-1.3-0.2-1.8-0.5c-0.4,0.1-0.9,0.1-1.3,0.4C15.2,13.8,16.4,15.8,16.6,18z"/>
		<path class="st0" d="M15.4,18c-0.3-2.2-1.4-4-3-5c-0.6-0.4-1.3-0.5-2.1-0.6c-0.5,0.4-1.3,0.5-2.1,0.5s-1.4-0.2-2.1-0.5
			c-2.7,0.2-4.8,2.7-5,5.9c0,0.4,0.3,0.7,0.6,0.7h12.9c0.4,0,0.6-0.4,0.6-0.6C15.4,18.2,15.4,18.1,15.4,18z"/>
	</g>
</g>
</svg>
