<?xml version="1.0" encoding="utf-8"?>
<!-- Generator: Adobe Illustrator 25.2.3, SVG Export Plug-In . SVG Version: 6.00 Build 0)  -->
<svg version="1.1" id="Layer_1" xmlns="http://www.w3.org/2000/svg" xmlns:xlink="http://www.w3.org/1999/xlink" x="0px" y="0px"
	 viewBox="0 0 300 169" style="enable-background:new 0 0 300 169;" xml:space="preserve">
<style type="text/css">
	.st0{fill:#4E5459;}
	.st1{fill:#141617;}
</style>
<rect class="st0" width="300" height="169"/>
<g>
	<path class="st1" d="M128.9,92.2c0,0-3.3-21.7,4.5-25.7c0,0,1.8-1.4,4.9-1.3c0,0,2.2-4.1,8.2-3.4c0,0-1.8,1.4-0.8,2
		c0,0,0.3,1.4,9.3-2.4c0,0-1,1.1,0.2,1.2c0,0,4-0.6,5.7,3.2c0,0,0.9,1,2.4,0.2c0,0,12,1.2,7.2,25.5l-25.3,15.9L128.9,92.2z"/>
	<g>
		<g>
			<path class="st1" d="M163.9,113.7h-27.8v11.6v5.9h0c0,0-0.8,10.8,13.9,18.8c14.7-8,13.9-18.8,13.9-18.8h0v-5.9V113.7z"/>
			<path class="st1" d="M164.8,139.6h-29.5c-3.7,0-6.7-3-6.7-6.7v-1.8c0-3.7,3-6.7,6.7-6.7h29.5c3.7,0,6.7,3,6.7,6.7v1.8
				C171.5,136.6,168.5,139.6,164.8,139.6z"/>
		</g>
		<g>
			<path class="st1" d="M162.7,147.6l-31.6-17.8c0,0-0.5,0.9-16.8,5.6c-2.4,0.7-4.6,1.9-6.4,3.6c-2.7,2.5-5.6,6.7-5.5,13.2
				l-1.5,16.9H150L162.7,147.6z"/>
			<path class="st1" d="M137.3,147.6l31.6-17.8c0,0,0.5,0.9,16.8,5.6c2.4,0.7,4.6,1.9,6.4,3.6c2.7,2.5,5.6,6.7,5.5,13.2l1.5,16.9
				H150L137.3,147.6z"/>
		</g>
	</g>
	<g>
		<g>
			<ellipse transform="matrix(0.9706 -0.2406 0.2406 0.9706 -19.6134 33.92)" class="st1" cx="129.1" cy="97.3" rx="3.2" ry="7.5"/>
			
				<ellipse transform="matrix(0.2406 -0.9706 0.9706 0.2406 35.3553 239.752)" class="st1" cx="170.9" cy="97.3" rx="7.5" ry="3.2"/>
		</g>
		<ellipse class="st1" cx="150" cy="96.6" rx="20.9" ry="26.9"/>
	</g>
</g>
</svg>
