<?xml version="1.0" encoding="utf-8"?>
<!-- Generator: Adobe Illustrator 25.2.3, SVG Export Plug-In . SVG Version: 6.00 Build 0)  -->
<svg version="1.1" id="Layer_1" xmlns="http://www.w3.org/2000/svg" xmlns:xlink="http://www.w3.org/1999/xlink" x="0px" y="0px"
	 viewBox="0 0 24 24" style="enable-background:new 0 0 24 24;" xml:space="preserve">
<style type="text/css">
	.st0{fill:#EEEEEE;}
</style>
<g>
	<path class="st0" d="M11.3,15.3v1.6h-1v0.7h1h1.3h1v-0.7h-1v-1.6c1.5-0.3,2.6-1.6,2.6-3.2c0-0.1-0.1-0.2-0.3-0.2
		c-0.1,0-0.3,0.1-0.3,0.2c0,1.5-1.2,2.7-2.7,2.7c-0.6,0-1.1-0.2-1.6-0.5l-0.4,0.4C10.4,14.9,10.9,15.2,11.3,15.3z"/>
	<path class="st0" d="M9.3,12.1c0-0.1-0.1-0.2-0.3-0.2c-0.1,0-0.3,0.1-0.3,0.2c0,0.7,0.2,1.3,0.6,1.8l0.4-0.4
		C9.4,13.1,9.3,12.6,9.3,12.1z"/>
	<path class="st0" d="M13.5,12c0,0.9-0.7,1.5-1.5,1.5c-0.2,0-0.5-0.1-0.7-0.2L11,13.7c0.3,0.2,0.7,0.3,1,0.3c1.1,0,2-0.9,2-2.1v-1.3
		l-0.5,0.5V12z"/>
	<path class="st0" d="M10.5,12v-1.7V8.6C10.5,7.7,11.2,7,12,7s1.5,0.7,1.5,1.5v1.3L14,9.3V8.6c0-1.1-0.9-2.1-2-2.1s-2,0.9-2,2.1v1.7
		V12c0,0.4,0.1,0.7,0.3,1l0.4-0.4C10.6,12.4,10.5,12.2,10.5,12z"/>
	<g>
		<g>
			<path class="st0" d="M8.1,16.2c-0.1,0-0.1,0-0.2-0.1c-0.1-0.1-0.1-0.3,0-0.4L15.7,8c0.1-0.1,0.3-0.1,0.4,0c0.1,0.1,0.1,0.3,0,0.4
				l-7.8,7.8C8.2,16.2,8.2,16.2,8.1,16.2z"/>
		</g>
	</g>
</g>
</svg>
