<?xml version="1.0" encoding="utf-8"?>
<!-- Generator: Adobe Illustrator 25.2.3, SVG Export Plug-In . SVG Version: 6.00 Build 0)  -->
<svg version="1.1" id="Layer_1" xmlns="http://www.w3.org/2000/svg" xmlns:xlink="http://www.w3.org/1999/xlink" x="0px" y="0px"
	 viewBox="0 0 48 48" style="enable-background:new 0 0 48 48;" xml:space="preserve">
<style type="text/css">
	.st0{opacity:0.5;}
</style>
<path class="st0" d="M45.2,40.5c0-2.9-1.3-4.8-2.5-5.9C42,33.8,41,33.3,39.9,33c-3.5-1-5.4-1.6-6.4-2c0-1.6-1.4-2.9-3-2.9h-0.4v-3.5
	c1.2-1.4,2.2-3.3,2.7-5.4c0.7-0.2,1.4-1.4,1.8-2.9c0.4-1.8,0.2-3.4-0.6-3.6c-0.3-0.1-0.6,0.1-0.9,0.3C35.2,2.6,30,2,30,2
	c-0.7,0.4-1.1-0.1-1.1-0.1c-0.7-1.7-2.5-1.4-2.5-1.4c-0.6,0-0.1-0.5-0.1-0.5c-4,1.7-4.2,1.1-4.2,1.1c-0.4-0.3,0.4-0.9,0.4-0.9
	c-2.7-0.3-3.7,1.5-3.7,1.5c-1.4-0.1-2.2,0.6-2.2,0.6c-2.9,1.5-2.4,8.2-2.1,10.6c-0.2-0.1-0.4-0.2-0.6-0.1c-0.8,0.2-1,1.8-0.6,3.6
	c0.4,1.5,1.1,2.6,1.8,2.9c0.5,2.1,1.5,4,2.7,5.4v3.4h-0.4c-1.6,0-2.9,1.3-3,2.9c-1,0.4-2.9,1-6.4,2c-1.1,0.3-2,0.8-2.9,1.6
	c-1.2,1.1-2.5,3-2.5,5.9L2.1,48H24h21.9L45.2,40.5z"/>
</svg>
