<?xml version="1.0" encoding="utf-8"?>
<!-- Generator: Adobe Illustrator 25.2.3, SVG Export Plug-In . SVG Version: 6.00 Build 0)  -->
<svg version="1.1" id="Layer_1" xmlns="http://www.w3.org/2000/svg" xmlns:xlink="http://www.w3.org/1999/xlink" x="0px" y="0px"
	 viewBox="0 0 24 24" style="enable-background:new 0 0 24 24;" xml:space="preserve">
<style type="text/css">
	.st0{fill:#EEEEEE;}
</style>
<g>
	<path class="st0" d="M11.6,14.1c1.1,0,2-0.9,2-2v-1.7v-2c0-0.2,0-0.4-0.1-0.5v0c0-0.1-0.1-0.2-0.1-0.3c0,0,0,0,0,0
		c-0.1-0.2-0.2-0.4-0.3-0.5c0,0,0,0,0,0C13,7,12.9,7,12.8,6.9c0,0,0,0,0,0c-0.2-0.1-0.3-0.2-0.5-0.3c0,0,0,0,0,0
		c-0.1,0-0.2-0.1-0.3-0.1c0,0,0,0-0.1,0c-0.1,0-0.2,0-0.3,0c-0.1,0-0.2,0-0.3,0c0,0,0,0-0.1,0c-0.1,0-0.2,0-0.3,0.1c0,0,0,0,0,0
		c-0.2,0.1-0.4,0.2-0.5,0.3c0,0,0,0,0,0C10.3,7,10.3,7,10.2,7.1c0,0,0,0,0,0C10,7.3,9.9,7.4,9.8,7.6c0,0,0,0,0,0
		c0,0.1-0.1,0.2-0.1,0.3v0c0,0.2-0.1,0.3-0.1,0.5v2v1.7C9.6,13.2,10.5,14.1,11.6,14.1z"/>
	<path class="st0" d="M14.6,11.9c-0.1,0-0.3,0.1-0.3,0.2c0,1.5-1.2,2.7-2.7,2.7s-2.7-1.2-2.7-2.7c0-0.1-0.1-0.2-0.3-0.2
		c-0.1,0-0.3,0.1-0.3,0.2c0,1.6,1.1,2.8,2.6,3.2v1.6h-1v0.7h1h1.3h1v-0.7h-1v-1.6c1.5-0.3,2.6-1.6,2.6-3.2
		C14.8,12,14.7,11.9,14.6,11.9z"/>
	<path class="st0" d="M14.3,8.8L14.6,9C15,8.4,14.7,7.6,14,7.2l-0.2,0.3C14.3,7.8,14.6,8.4,14.3,8.8z"/>
	<path class="st0" d="M15.5,7.7c-0.2-0.5-0.5-1-1-1.2l-0.2,0.3c0.4,0.2,0.7,0.6,0.9,1c0.1,0.4,0.1,0.8-0.1,1.2l0.3,0.2
		C15.6,8.8,15.7,8.3,15.5,7.7z"/>
</g>
</svg>
