<?xml version="1.0" encoding="utf-8"?>
<!-- Generator: Adobe Illustrator 25.2.3, SVG Export Plug-In . SVG Version: 6.00 Build 0)  -->
<svg version="1.1" id="Layer_1" xmlns="http://www.w3.org/2000/svg" xmlns:xlink="http://www.w3.org/1999/xlink" x="0px" y="0px"
	 viewBox="0 0 24 24" style="enable-background:new 0 0 24 24;" xml:space="preserve">
<style type="text/css">
	.st0{fill:#EEEEEE;}
</style>
<path class="st0" d="M17.3,9.6c-0.2-0.1-0.4-0.1-0.6,0l-1.2,0.7V9.9c0-0.9-0.7-1.5-1.5-1.5H8C7.2,8.4,6.5,9,6.5,9.9v4.3
	c0,0.9,0.7,1.5,1.5,1.5h5.9c0.9,0,1.5-0.7,1.5-1.5v-0.5l1.2,0.7c0.2,0.1,0.4,0.1,0.6,0c0.2-0.1,0.3-0.3,0.3-0.5v-3.5
	C17.6,9.9,17.4,9.7,17.3,9.6z M10.4,13.2v-2.6l2.2,1.3L10.4,13.2z"/>
</svg>
