<?xml version="1.0" encoding="utf-8"?>
<!-- Generator: Adobe Illustrator 25.2.3, SVG Export Plug-In . SVG Version: 6.00 Build 0)  -->
<svg version="1.1" id="Layer_1" xmlns="http://www.w3.org/2000/svg" xmlns:xlink="http://www.w3.org/1999/xlink" x="0px" y="0px"
	 viewBox="0 0 24 24" style="enable-background:new 0 0 24 24;" xml:space="preserve">
<style type="text/css">
	.st0{fill:#EEEEEE;}
</style>
<g>
	<path d="M-15.1-8.6c-0.3-0.2-0.6-0.1-0.9,0l-1.8,1v-0.8c0-1.3-1.1-2.4-2.4-2.4h-9c-1.3,0-2.4,1.1-2.4,2.4v6.5
		c0,1.3,1.1,2.4,2.4,2.4h9c1.3,0,2.4-1.1,2.4-2.4v-0.8l1.8,1c0.3,0.2,0.7,0.2,0.9,0c0.3-0.2,0.4-0.5,0.4-0.8v-5.4
		C-14.6-8.1-14.8-8.4-15.1-8.6z"/>
	<path class="st0" d="M-23.1-5.4c0.4,0.2,0.4,0.5,0,0.7l-0.4,0.2c-0.4,0.2-0.9,0.5-1.3,0.7l-0.4,0.2c-0.4,0.2-0.6,0-0.6-0.4v-0.5
		c0-0.4,0-1.1,0-1.5v-0.5c0-0.4,0.3-0.6,0.6-0.4l0.4,0.2c0.4,0.2,0.9,0.5,1.3,0.7L-23.1-5.4z"/>
</g>
<g>
	<g>
		<path class="st0" d="M7.7,15.4l0.5-0.5l0,0c-0.5,0-0.9-0.4-0.9-0.9v-4C7.2,9.5,7.7,9,8.2,9h5.6c0.1,0,0.1,0,0.2,0l0.5-0.4
			c-0.2-0.1-0.4-0.2-0.7-0.2H8.2c-0.8,0-1.5,0.7-1.5,1.5V14C6.7,14.7,7.1,15.2,7.7,15.4z"/>
		<path class="st0" d="M17.1,9.8c-0.2-0.1-0.4-0.1-0.6,0l-1.1,0.6V10c0-0.1,0-0.3-0.1-0.4l-0.6,0.5v1.4l1.9-1.1v3.3l-1.9-1.1v1.6
			c0,0.5-0.4,0.9-0.9,0.9H9.9l-0.6,0.6h4.5c0.8,0,1.5-0.7,1.5-1.5v-0.5l1.1,0.6c0.2,0.1,0.4,0.1,0.6,0s0.3-0.3,0.3-0.5v-3.4
			C17.3,10.1,17.2,9.9,17.1,9.8z"/>
	</g>
	<g>
		<g>
			<path class="st0" d="M7.3,17c-0.1,0-0.1,0-0.2-0.1s-0.1-0.3,0-0.4l9.4-9.4C16.6,7,16.8,7,17,7.1c0.1,0.1,0.1,0.3,0,0.4l-9.4,9.4
				C7.4,17,7.4,17,7.3,17z"/>
		</g>
	</g>
</g>
</svg>
