<?xml version="1.0" encoding="utf-8"?>
<!-- Generator: Adobe Illustrator 25.2.3, SVG Export Plug-In . SVG Version: 6.00 Build 0)  -->
<svg version="1.1" id="Layer_1" xmlns="http://www.w3.org/2000/svg" xmlns:xlink="http://www.w3.org/1999/xlink" x="0px" y="0px"
	 viewBox="0 0 24 24" style="enable-background:new 0 0 24 24;" xml:space="preserve">
<style type="text/css">
	.st0{fill:#EEEEEE;}
</style>
<g>
	<g>
		<path class="st0" d="M16.1,8H7.9c-0.6,0-1,0.5-1,1v4.9c0,0.6,0.5,1,1,1H16c0.6,0,1-0.5,1-1V9.1C17.1,8.5,16.6,8,16.1,8z M12,14.8
			c-0.1,0-0.2-0.1-0.2-0.2c0-0.1,0.1-0.2,0.2-0.2s0.2,0.1,0.2,0.2C12.3,14.6,12.1,14.8,12,14.8z M16.5,13c0,0.6-0.5,1-1,1h-7
			c-0.6,0-1-0.5-1-1V9.6c0-0.6,0.5-1,1-1h6.9c0.6,0,1,0.5,1,1L16.5,13L16.5,13z"/>
		<path class="st0" d="M13.8,16h-3.5c-0.2,0-0.3-0.1-0.3-0.3l0,0c0-0.2,0.1-0.3,0.3-0.3h3.5c0.2,0,0.3,0.1,0.3,0.3l0,0
			C14.1,15.8,13.9,16,13.8,16z"/>
	</g>
	<path class="st0" d="M13.4,10.2l-1-0.9v0.9c-2.3,0-2.7,2.6-2.7,2.6c1.8-1.7,2.7-1,2.7-1v0.9l1-0.9l1-0.9L13.4,10.2z"/>
</g>
</svg>
