<?xml version="1.0" encoding="utf-8"?>
<!-- Generator: Adobe Illustrator 25.2.3, SVG Export Plug-In . SVG Version: 6.00 Build 0)  -->
<svg version="1.1" id="Layer_2_1_" xmlns="http://www.w3.org/2000/svg" xmlns:xlink="http://www.w3.org/1999/xlink" x="0px" y="0px"
	 viewBox="0 0 24 24" style="enable-background:new 0 0 24 24;" xml:space="preserve">
<style type="text/css">
	.st0{fill:#EEEEEE;}
	.st1{fill:none;}
	.st2{fill:#FFFFFF;}
</style>
<g>
	<g>
		<path d="M0.5-19.3v-4.6h-1.5v-1h4.2v1H1.5v4.6H0.5z"/>
		<path d="M5-19.3v-4.6H3.5v-1h4.2v1H6.1v4.6H5z"/>
		<path d="M10.2-19.2c-0.3,0-0.5,0-0.8-0.1c-0.3-0.1-0.5-0.2-0.7-0.3c-0.2-0.1-0.3-0.3-0.5-0.5c-0.1-0.2-0.2-0.5-0.2-0.8
			c0,0,0-0.1,0-0.1c0,0,0-0.1,0-0.1h1c0,0,0,0,0,0.1c0,0,0,0.1,0,0.1c0,0.2,0,0.3,0.1,0.4c0.1,0.1,0.2,0.2,0.4,0.3
			c0.2,0.1,0.3,0.1,0.6,0.1c0.1,0,0.3,0,0.4,0c0.1,0,0.2,0,0.3-0.1s0.1-0.1,0.2-0.1c0.1,0,0.1-0.1,0.1-0.2c0-0.1,0-0.1,0-0.2
			c0-0.1,0-0.3-0.1-0.4c-0.1-0.1-0.2-0.2-0.3-0.2c-0.1-0.1-0.3-0.1-0.5-0.2c-0.2-0.1-0.4-0.1-0.5-0.2c-0.2-0.1-0.4-0.1-0.5-0.2
			C9-22,8.8-22.1,8.7-22.3c-0.1-0.1-0.3-0.3-0.3-0.5s-0.1-0.4-0.1-0.7c0-0.3,0.1-0.5,0.2-0.7c0.1-0.2,0.2-0.4,0.4-0.5
			c0.2-0.1,0.4-0.2,0.6-0.3C9.7-25,9.9-25,10.2-25c0.3,0,0.5,0,0.7,0.1s0.4,0.2,0.6,0.3c0.2,0.1,0.3,0.3,0.4,0.5
			c0.1,0.2,0.2,0.5,0.2,0.7v0.1h-1v-0.1c0-0.1,0-0.3-0.1-0.4c-0.1-0.1-0.2-0.2-0.3-0.2C10.5-24,10.4-24,10.2-24C10-24,9.8-24,9.7-24
			c-0.1,0-0.2,0.1-0.3,0.2c-0.1,0.1-0.1,0.2-0.1,0.3c0,0.1,0,0.2,0.1,0.3s0.2,0.2,0.3,0.2s0.3,0.1,0.5,0.2c0.2,0,0.4,0.1,0.5,0.2
			c0.2,0.1,0.4,0.1,0.5,0.2c0.2,0.1,0.3,0.2,0.5,0.3c0.1,0.1,0.3,0.3,0.3,0.5c0.1,0.2,0.1,0.4,0.1,0.6c0,0.4-0.1,0.8-0.3,1
			s-0.4,0.5-0.7,0.6C10.9-19.3,10.6-19.2,10.2-19.2z"/>
	</g>
	<g>
		<g>
			<path d="M-1.6-3.1c-0.1,0-0.3,0-0.4-0.1c-0.2-0.2-0.2-0.5,0-0.7l14.4-14.4c0.2-0.2,0.5-0.2,0.7,0s0.2,0.5,0,0.7L-1.2-3.3
				C-1.3-3.2-1.5-3.1-1.6-3.1z"/>
		</g>
	</g>
	<g>
		<path d="M-5.9-7.6h3v-6h-3V-7.6z M-4.9-12.6h1v4h-1V-12.6z"/>
		<path d="M6.5-7.5l0,2.9C5.3-5.6,4.1-6.3,3.1-6.9L2.3-6.2c1.3,0.6,2.8,1.6,4.4,2.9C6.8-3.1,6.9-3.1,7-3.1c0.2,0,0.5-0.2,0.5-0.5
			l0-4l0-3.8l-1,1L6.5-7.5z"/>
		<path d="M-1.2-8.4v-4.3c1.4-0.3,4.3-1.1,7.8-3.7v2.9v0.4l1-1v-3.4c0-0.3-0.2-0.5-0.5-0.5c-0.1,0-0.2,0-0.3,0.1
			c-5.1,4.2-9,4.3-9,4.3v6c0,0,1,0,2.6,0.6l0.8-0.8C0.1-8.1-0.7-8.3-1.2-8.4z"/>
		<path d="M9.5-13.3l-1.1,1.1v4.3c1.3-0.3,2.3-1.5,2.3-2.9C10.7-11.8,10.2-12.7,9.5-13.3z M9.4-9.7v-2.3c0.2,0.3,0.3,0.7,0.3,1.1
			S9.6-10,9.4-9.7z"/>
		<path d="M11.8-14v0.7c1,0,1.8,1.2,1.8,2.7s-0.8,2.7-1.8,2.7v0.7c1.4,0,2.5-1.5,2.5-3.4C14.3-12.5,13.2-14,11.8-14z"/>
		<path d="M13.7-15.3v0.7c1.5,0,2.7,1.8,2.7,4c0,2.2-1.2,4-2.7,4v0.7c1.9,0,3.4-2.1,3.4-4.8S15.6-15.3,13.7-15.3z"/>
	</g>
</g>
<g>
	<g>
		<path class="st0" d="M-36.9-1v-4.6h-1.5v-1h4.2v1h-1.6V-1H-36.9z"/>
		<path class="st0" d="M-32.4-1v-4.6h-1.5v-1h4.2v1h-1.6V-1H-32.4z"/>
		<path class="st0" d="M-27.2-0.9c-0.3,0-0.5,0-0.8-0.1c-0.3-0.1-0.5-0.2-0.7-0.3c-0.2-0.1-0.3-0.3-0.5-0.5
			c-0.1-0.2-0.2-0.5-0.2-0.8c0,0,0-0.1,0-0.1c0,0,0-0.1,0-0.1h1c0,0,0,0,0,0.1c0,0,0,0.1,0,0.1c0,0.2,0,0.3,0.1,0.4
			c0.1,0.1,0.2,0.2,0.4,0.3c0.2,0.1,0.3,0.1,0.6,0.1c0.1,0,0.3,0,0.4,0c0.1,0,0.2,0,0.3-0.1s0.1-0.1,0.2-0.1c0.1,0,0.1-0.1,0.1-0.2
			c0-0.1,0-0.1,0-0.2c0-0.1,0-0.3-0.1-0.4c-0.1-0.1-0.2-0.2-0.3-0.2c-0.1-0.1-0.3-0.1-0.5-0.2c-0.2-0.1-0.4-0.1-0.5-0.2
			c-0.2-0.1-0.4-0.1-0.5-0.2c-0.2-0.1-0.3-0.2-0.5-0.3C-28.8-4.1-29-4.2-29-4.4s-0.1-0.4-0.1-0.7c0-0.3,0.1-0.5,0.2-0.7
			c0.1-0.2,0.2-0.4,0.4-0.5c0.2-0.1,0.4-0.2,0.6-0.3c0.2-0.1,0.5-0.1,0.8-0.1c0.3,0,0.5,0,0.7,0.1s0.4,0.2,0.6,0.3
			c0.2,0.1,0.3,0.3,0.4,0.5c0.1,0.2,0.2,0.5,0.2,0.7v0.1h-1V-5c0-0.1,0-0.3-0.1-0.4c-0.1-0.1-0.2-0.2-0.3-0.2
			c-0.1-0.1-0.3-0.1-0.5-0.1c-0.2,0-0.4,0-0.5,0.1c-0.1,0-0.2,0.1-0.3,0.2c-0.1,0.1-0.1,0.2-0.1,0.3c0,0.1,0,0.2,0.1,0.3
			s0.2,0.2,0.3,0.2s0.3,0.1,0.5,0.2c0.2,0,0.4,0.1,0.5,0.2c0.2,0.1,0.4,0.1,0.5,0.2c0.2,0.1,0.3,0.2,0.5,0.3
			c0.1,0.1,0.3,0.3,0.3,0.5c0.1,0.2,0.1,0.4,0.1,0.6c0,0.4-0.1,0.8-0.3,1s-0.4,0.5-0.7,0.6C-26.4-0.9-26.8-0.9-27.2-0.9z"/>
	</g>
	<g>
		<path class="st1" d="M-32.1,12.8c0.1,0,0.1,0.1,0.2,0.1c0.2,0,0.4-0.1,0.4-0.3V9.6v-1l-2.9,2.8C-33.7,11.7-32.9,12.2-32.1,12.8z"
			/>
		<path class="st1" d="M-31.5,2.4c-0.1-0.1-0.2-0.2-0.4-0.2c-0.1,0-0.2,0-0.2,0.1c-4.1,3-7.3,3.1-7.3,3.1v0h-1.2
			c-0.2,0-0.4,0.2-0.4,0.4v3.6c0,0.2,0.2,0.4,0.4,0.4h1.2v0c0,0,1.2,0.1,3,0.8l4.9-4.6V5.3V2.4z"/>
		<path class="st0" d="M-29.9,7.2v3.1c1.2-0.3,2.2-1.4,2.2-2.7c0-0.7-0.2-1.3-0.6-1.8L-29.9,7.2z"/>
		<path class="st0" d="M-26.7,4.5v0.7c0.9,0,1.7,1.1,1.7,2.5c0,1.4-0.8,2.5-1.7,2.5v0.7c1.3,0,2.3-1.4,2.3-3.2
			C-24.4,5.9-25.4,4.5-26.7,4.5z"/>
		<path class="st0" d="M-24.9,3.3V4c1.4,0,2.5,1.7,2.5,3.8c0,2.1-1.1,3.8-2.5,3.8v0.7c1.8,0,3.2-1.8,3.2-4.3S-23.2,3.3-24.9,3.3z"/>
		<path class="st0" d="M-39.4,9.7L-39.4,9.7l-1.2,0c-0.2,0-0.4-0.2-0.4-0.4V5.7c0-0.2,0.2-0.4,0.4-0.4h1.2v0c0,0,3.2-0.1,7.3-3.1
			c0.1,0,0.1-0.1,0.2-0.1c0.2,0,0.4,0.1,0.4,0.2v2.9v0.6l0.8-0.7V2.4V2.2L-30.8,2c-0.2-0.4-0.6-0.6-1.1-0.6c-0.2,0-0.4,0.1-0.6,0.2
			l0,0l0,0c-3.7,2.7-6.5,2.9-6.8,3l0,0h-1.2c-0.6,0-1.2,0.5-1.2,1.1v3.6c0,0.6,0.5,1.1,1.2,1.1h1.2l0,0c0,0,1,0.1,2.5,0.6l0.6-0.6
			C-38.2,9.7-39.4,9.7-39.4,9.7z"/>
		<path class="st0" d="M-31.5,9.6v2.9c0,0.2-0.2,0.3-0.4,0.3c-0.1,0-0.2,0-0.2-0.1c-0.8-0.6-1.6-1-2.3-1.4l-0.6,0.5
			c0.8,0.4,1.6,0.9,2.4,1.5l0,0l0,0c0.2,0.1,0.4,0.2,0.6,0.2c0.7,0,1.2-0.5,1.2-1.1V9.6V7.9l-0.8,0.7V9.6z"/>
	</g>
	<g>
		<path class="st0" d="M-38,13.8c-0.1,0-0.2,0-0.3-0.1c-0.1-0.2-0.1-0.4,0-0.5l12.5-11.8c0.2-0.1,0.4-0.1,0.5,0
			c0.1,0.2,0.1,0.4,0,0.5l-12.5,11.8C-37.9,13.7-37.9,13.8-38,13.8z"/>
	</g>
</g>
<path class="st2" d="M17.2,12.9L17.2,12.9C17.2,12.8,17.2,12.8,17.2,12.9L17.2,12.9z"/>
<g>
	<g>
		<polygon class="st0" points="5.3,2.9 6.9,2.9 6.9,7.5 7.9,7.5 7.9,2.9 9.5,2.9 9.5,1.9 5.3,1.9 		"/>
		<polygon class="st0" points="9.9,2.9 11.4,2.9 11.4,7.5 12.5,7.5 12.5,2.9 14,2.9 14,1.9 9.9,1.9 		"/>
		<path class="st0" d="M18.5,5.1c-0.1-0.2-0.2-0.3-0.3-0.5c-0.1-0.1-0.3-0.2-0.5-0.3c-0.2-0.1-0.4-0.2-0.5-0.2C17,4.1,16.8,4,16.6,4
			c-0.2,0-0.3-0.1-0.5-0.2s-0.3-0.1-0.3-0.2s-0.1-0.2-0.1-0.3c0-0.1,0-0.2,0.1-0.3c0.1-0.1,0.2-0.1,0.3-0.2c0.1,0,0.3-0.1,0.5-0.1
			c0.2,0,0.3,0,0.5,0.1c0.1,0.1,0.2,0.1,0.3,0.2c0.1,0.1,0.1,0.2,0.1,0.4v0.1h1V3.4c0-0.3-0.1-0.5-0.2-0.7c-0.1-0.2-0.2-0.4-0.4-0.5
			c-0.2-0.1-0.4-0.2-0.6-0.3s-0.5-0.1-0.7-0.1c-0.3,0-0.5,0-0.8,0.1c-0.2,0.1-0.4,0.2-0.6,0.3c-0.2,0.1-0.3,0.3-0.4,0.5
			c-0.1,0.2-0.2,0.4-0.2,0.7c0,0.3,0,0.5,0.1,0.7s0.2,0.3,0.3,0.5c0.1,0.1,0.3,0.2,0.5,0.3c0.2,0.1,0.4,0.2,0.5,0.2
			c0.2,0.1,0.4,0.1,0.5,0.2c0.2,0.1,0.3,0.1,0.5,0.2c0.1,0.1,0.3,0.1,0.3,0.2c0.1,0.1,0.1,0.2,0.1,0.4c0,0.1,0,0.2,0,0.2
			c0,0.1-0.1,0.1-0.1,0.2c-0.1,0-0.1,0.1-0.2,0.1S17,6.5,16.9,6.5c-0.1,0-0.2,0-0.4,0c-0.2,0-0.4,0-0.6-0.1
			c-0.2-0.1-0.3-0.1-0.4-0.3c-0.1-0.1-0.1-0.3-0.1-0.4c0,0,0,0,0-0.1c0,0,0,0,0-0.1h-1c0,0,0,0,0,0.1c0,0,0,0.1,0,0.1
			c0,0.3,0.1,0.6,0.2,0.8c0.1,0.2,0.3,0.4,0.5,0.5c0.2,0.1,0.4,0.2,0.7,0.3c0.3,0.1,0.5,0.1,0.8,0.1c0.4,0,0.8-0.1,1.1-0.2
			c0.3-0.1,0.6-0.3,0.7-0.6s0.3-0.6,0.3-1C18.7,5.5,18.6,5.3,18.5,5.1z"/>
	</g>
	<g>
		<g>
			<rect x="4.2" y="12.7" class="st0" width="2.6" height="5.3"/>
			<path class="st0" d="M15.3,21.8c0.3,0.2,0.7,0,0.7-0.3V18v-4.6l-5.4,5.4C11.8,19.4,13.4,20.3,15.3,21.8z"/>
			<path class="st0" d="M15.3,9c-4.4,3.6-7.9,3.8-7.9,3.8V18c0,0,0.3,0,0.9,0.1l7.6-7.6V9.3C15.9,8.9,15.5,8.7,15.3,9z"/>
			<path class="st0" d="M16.7,12.6L16.7,12.6l-0.1,5.1c1.2-0.3,2-1.3,2-2.6C18.7,13.9,17.8,12.9,16.7,12.6z"/>
		</g>
		<g>
			<path class="st0" d="M6,22.2c-0.1,0-0.2,0-0.3-0.1c-0.1-0.1-0.1-0.4,0-0.5L19.2,8.2c0.1-0.1,0.4-0.1,0.5,0c0.1,0.1,0.1,0.4,0,0.5
				L6.3,22.1C6.2,22.2,6.1,22.2,6,22.2z"/>
		</g>
	</g>
</g>
</svg>
