<?xml version="1.0" encoding="utf-8"?>
<!-- Generator: Adobe Illustrator 25.2.3, SVG Export Plug-In . SVG Version: 6.00 Build 0)  -->
<svg version="1.1" id="Layer_1" xmlns="http://www.w3.org/2000/svg" xmlns:xlink="http://www.w3.org/1999/xlink" x="0px" y="0px"
	 viewBox="0 0 80 46" style="enable-background:new 0 0 80 46;" xml:space="preserve">
<style type="text/css">
	.st0{fill:#8C8C8D;}
	.st1{opacity:0.5;fill:#040000;enable-background:new    ;}
</style>
<rect class="st0" width="80" height="46"/>
<path class="st1" d="M56.6,40.1c0-2.3-1-3.8-2-4.6c-0.5-0.6-1.3-1-2.2-1.3c-2.7-0.8-4.2-1.3-5-1.6c0-1.3-1.1-2.3-2.3-2.3h-0.3v-2.7
	c0.9-1.1,1.7-2.6,2.1-4.2c0.5-0.2,1.1-1.1,1.4-2.3c0.3-1.4,0.2-2.7-0.5-2.8c-0.2-0.1-0.5,0.1-0.7,0.2c1.6-8.1-2.4-8.6-2.4-8.6
	c-0.5,0.3-0.9-0.1-0.9-0.1c-0.5-1.3-2-1.1-2-1.1c-0.5,0-0.1-0.4-0.1-0.4c-3.1,1.3-3.3,0.9-3.3,0.9c-0.3-0.2,0.3-0.7,0.3-0.7
	c-2.1-0.2-2.9,1.2-2.9,1.2c-1.1-0.1-1.7,0.5-1.7,0.5c-2.3,1.2-1.9,6.4-1.6,8.3c-0.2-0.1-0.3-0.2-0.5-0.1c-0.6,0.2-0.8,1.4-0.5,2.8
	c0.3,1.2,0.9,2,1.4,2.3c0.4,1.6,1.2,3.1,2.1,4.2v2.7h-0.3c-1.3,0-2.3,1-2.3,2.3c-0.8,0.3-2.3,0.8-5,1.6c-0.9,0.2-1.6,0.6-2.3,1.3
	c-0.9,0.9-2,2.3-2,4.6L22.9,46H40h17.1L56.6,40.1z"/>
</svg>
