<?xml version="1.0" encoding="utf-8"?>
<!-- Generator: Adobe Illustrator 25.2.3, SVG Export Plug-In . SVG Version: 6.00 Build 0)  -->
<svg version="1.1" id="Layer_1" xmlns="http://www.w3.org/2000/svg" xmlns:xlink="http://www.w3.org/1999/xlink" x="0px" y="0px"
	 viewBox="0 0 24 24" style="enable-background:new 0 0 24 24;" xml:space="preserve">
<style type="text/css">
	.st0{fill:#EEEEEE;}
</style>
<path class="st0" d="M19,10.3h-1V7c0-3.3-2.7-6-6-6S6,3.7,6,7v3.3H5c-1.7,0-3,1.3-3,3V20c0,1.7,1.3,3,3,3h14c1.7,0,3-1.3,3-3v-6.7
	C22,11.6,20.7,10.3,19,10.3z M12,18.6c-1.1,0-2-0.9-2-2c0-1.1,0.9-2,2-2s2,0.9,2,2C14,17.7,13.1,18.6,12,18.6z M16,10.3H8V7
	c0-2.2,1.8-4,4-4s4,1.8,4,4V10.3z"/>
</svg>
