<?xml version="1.0" encoding="utf-8"?>
<!-- Generator: Adobe Illustrator 25.2.3, SVG Export Plug-In . SVG Version: 6.00 Build 0)  -->
<svg version="1.1" id="Layer_2_1_" xmlns="http://www.w3.org/2000/svg" xmlns:xlink="http://www.w3.org/1999/xlink" x="0px" y="0px"
	 viewBox="0 0 24 24" style="enable-background:new 0 0 24 24;" xml:space="preserve">
<style type="text/css">
	.st0{fill:#EEEEEE;}
</style>
<g>
	<g>
		<path class="st0" d="M14.2,21.7h-9c-1.8,0-3.2-1.5-3.2-3.2v-13c0-1.8,1.5-3.2,3.2-3.2h8.9c1.8,0,3.2,1.5,3.2,3.2v1.1
			c0,0.4-0.4,0.8-0.8,0.8c-0.4,0-0.7-0.4-0.7-0.8V5.5c0-0.9-0.7-1.6-1.6-1.6h-9c-0.9,0-1.6,0.7-1.6,1.6v13c0,0.9,0.7,1.6,1.6,1.6
			h8.9c0.9,0,1.6-0.7,1.6-1.6V17c0-0.4,0.4-0.8,0.8-0.8c0.4,0,0.8,0.4,0.8,0.8v1.5C17.4,20.3,16,21.7,14.2,21.7z"/>
	</g>
	<path class="st0" d="M21.9,12.1c0.1-0.1,0.1-0.4,0-0.5c0-0.1-0.1-0.1-0.1-0.2l-2.7-2.7c-0.2-0.2-0.7-0.2-1,0c-0.2,0.2-0.2,0.7,0,1
		l1.7,1.6h-8.2c-0.3,0-0.6,0.3-0.6,0.7c0,0.4,0.3,0.7,0.7,0.7h8.2l-1.7,1.6c-0.2,0.2-0.2,0.7,0,1c0.1,0.1,0.3,0.2,0.4,0.2
		s0.4-0.1,0.4-0.2l2.8-2.8C21.9,12.3,21.9,12.2,21.9,12.1z"/>
</g>
</svg>
