<?xml version="1.0" encoding="utf-8"?>
<!-- Generator: Adobe Illustrator 25.2.3, SVG Export Plug-In . SVG Version: 6.00 Build 0)  -->
<svg version="1.1" id="Layer_2_1_" xmlns="http://www.w3.org/2000/svg" xmlns:xlink="http://www.w3.org/1999/xlink" x="0px" y="0px"
	 viewBox="0 0 24 24" style="enable-background:new 0 0 24 24;" xml:space="preserve">
<style type="text/css">
	.st0{fill:#EEEEEE;}
	.st1{fill:#141617;}
</style>
<g>
	<g>
		<path class="st0" d="M8.7,9.3H8.3c-0.2,0-0.4,0.2-0.4,0.4v4.5c0,0.2,0.2,0.4,0.4,0.4h0.4c0.4,0,0.7-0.3,0.7-0.7v-3.9
			C9.4,9.7,9.1,9.3,8.7,9.3z"/>
		<path class="st0" d="M18.6,8.7L18.6,8.7c0-4-2.9-7.3-6.6-7.3S5.4,4.7,5.4,8.7h0c-0.6,0-1.1,0.5-1.1,1.1v4.4c0,0.6,0.5,1.1,1.1,1.1
			h1.2c0.4,0,0.7-0.3,0.7-0.7V9.4C7.3,9,7,8.7,6.7,8.7H6.4c0-3.5,2.5-6.3,5.6-6.3s5.6,2.8,5.6,6.3h-0.3c-0.4,0-0.7,0.3-0.7,0.7v5.3
			c0,0.4,0.3,0.7,0.7,0.7h1.2c0.6,0,1.1-0.5,1.1-1.1V9.8C19.7,9.2,19.2,8.7,18.6,8.7z"/>
		<path class="st0" d="M15.7,9.3h-0.4c-0.4,0-0.7,0.3-0.7,0.7V14c0,0.4,0.3,0.7,0.7,0.7h0.4c0.2,0,0.4-0.2,0.4-0.4V9.8
			C16.1,9.5,15.9,9.3,15.7,9.3z"/>
	</g>
	<g>
		<path class="st0" d="M7,22.6c-0.5,0-1-0.1-1.3-0.3c-0.4-0.2-0.7-0.5-0.9-0.8c-0.2-0.4-0.3-0.8-0.3-1.4c0-0.6,0.1-1,0.3-1.4
			c0.2-0.4,0.5-0.6,0.9-0.8c0.4-0.2,0.8-0.3,1.3-0.3c0.5,0,1,0.1,1.3,0.3c0.4,0.2,0.7,0.5,0.8,0.8c0.2,0.4,0.3,0.8,0.3,1.4
			c0,0.6-0.1,1-0.3,1.4c-0.2,0.4-0.5,0.6-0.8,0.8C8,22.5,7.6,22.6,7,22.6z M7,21.8c0.2,0,0.4,0,0.6-0.1c0.2-0.1,0.3-0.2,0.4-0.3
			c0.1-0.1,0.2-0.3,0.3-0.5c0.1-0.2,0.1-0.4,0.1-0.7V20c0-0.2,0-0.5-0.1-0.7c-0.1-0.2-0.2-0.4-0.3-0.5c-0.1-0.1-0.3-0.2-0.4-0.3
			c-0.2-0.1-0.4-0.1-0.6-0.1c-0.2,0-0.4,0-0.6,0.1c-0.2,0.1-0.3,0.2-0.4,0.3c-0.1,0.1-0.2,0.3-0.3,0.5c-0.1,0.2-0.1,0.4-0.1,0.7v0.2
			c0,0.2,0,0.5,0.1,0.7c0.1,0.2,0.1,0.4,0.3,0.5c0.1,0.1,0.3,0.2,0.4,0.3C6.6,21.7,6.8,21.8,7,21.8z"/>
		<path class="st0" d="M12.5,22.6c-0.4,0-0.8-0.1-1.1-0.2c-0.3-0.1-0.6-0.4-0.7-0.6c-0.2-0.3-0.3-0.6-0.3-1.1v-3h1.1v3
			c0,0.3,0.1,0.6,0.3,0.8c0.2,0.2,0.4,0.3,0.8,0.3s0.6-0.1,0.8-0.3c0.2-0.2,0.3-0.5,0.3-0.8v-3h1.1v3c0,0.4-0.1,0.8-0.3,1.1
			c-0.2,0.3-0.4,0.5-0.7,0.6C13.3,22.6,12.9,22.6,12.5,22.6z"/>
		<path class="st0" d="M16.8,22.5v-4h-1.5v-0.9h4.2v0.9h-1.6v4H16.8z"/>
	</g>
</g>
<g>
	<g>
		<g>
			<path class="st1" d="M77.7-7.3c-0.5,0-1-0.1-1.3-0.3c-0.4-0.2-0.7-0.5-0.9-0.8c-0.2-0.4-0.3-0.8-0.3-1.4c0-0.6,0.1-1,0.3-1.4
				c0.2-0.4,0.5-0.6,0.9-0.8c0.4-0.2,0.8-0.3,1.3-0.3c0.5,0,1,0.1,1.3,0.3c0.4,0.2,0.7,0.5,0.8,0.8s0.3,0.8,0.3,1.4
				c0,0.6-0.1,1-0.3,1.4S79.4-7.8,79-7.6C78.6-7.4,78.2-7.3,77.7-7.3z M77.7-8.2c0.2,0,0.4,0,0.6-0.1c0.2-0.1,0.3-0.2,0.4-0.3
				c0.1-0.1,0.2-0.3,0.3-0.5c0.1-0.2,0.1-0.4,0.1-0.7v-0.2c0-0.2,0-0.5-0.1-0.7c-0.1-0.2-0.2-0.4-0.3-0.5c-0.1-0.1-0.3-0.2-0.4-0.3
				c-0.2-0.1-0.4-0.1-0.6-0.1c-0.2,0-0.4,0-0.6,0.1c-0.2,0.1-0.3,0.2-0.4,0.3c-0.1,0.1-0.2,0.3-0.3,0.5c-0.1,0.2-0.1,0.4-0.1,0.7
				v0.2c0,0.2,0,0.5,0.1,0.7c0.1,0.2,0.1,0.4,0.3,0.5c0.1,0.1,0.3,0.2,0.4,0.3C77.3-8.2,77.5-8.2,77.7-8.2z"/>
			<path class="st1" d="M83.1-7.3c-0.4,0-0.8-0.1-1.1-0.2c-0.3-0.1-0.6-0.4-0.7-0.6C81.1-8.5,81-8.8,81-9.2v-3H82v3
				c0,0.3,0.1,0.6,0.3,0.8c0.2,0.2,0.4,0.3,0.8,0.3c0.3,0,0.6-0.1,0.8-0.3c0.2-0.2,0.3-0.5,0.3-0.8v-3h1.1v3c0,0.4-0.1,0.8-0.3,1.1
				c-0.2,0.3-0.4,0.5-0.7,0.6C83.9-7.4,83.6-7.3,83.1-7.3z"/>
			<path class="st1" d="M87.5-7.4v-4h-1.5v-0.9h4.2v0.9h-1.6v4H87.5z"/>
		</g>
	</g>
	<g>
		<g>
			<g>
				<g>
					<rect x="74.5" y="-24" class="st1" width="2.3" height="4.9"/>
				</g>
			</g>
			<g>
				<g>
					<path class="st1" d="M84.2-27.5c-3.9,3.3-6.9,3.5-6.9,3.5v4.9c0,0,3,0.1,6.9,3.5c0.2,0.2,0.6,0,0.6-0.3v-3.2V-24v-3.2
						C84.8-27.5,84.5-27.7,84.2-27.5z"/>
				</g>
			</g>
		</g>
	</g>
	<g>
		<g>
			<path class="st1" d="M86.5-22.8c-0.1,0-0.1,0-0.2-0.1c-0.1-0.1-0.1-0.3,0.1-0.4l2-1.9c0.1-0.1,0.2-0.1,0.3,0.1
				c0.1,0.1,0.1,0.3-0.1,0.4l-2,1.9C86.6-22.8,86.5-22.8,86.5-22.8z"/>
		</g>
		<g>
			<path class="st1" d="M89-17.9C89-17.9,89-17.9,89-17.9l-2.4-1.2c-0.1-0.1-0.2-0.2-0.1-0.4c0-0.2,0.2-0.2,0.3-0.2l2.3,1.2
				c0.1,0.1,0.2,0.2,0.1,0.4C89.2-17.9,89.1-17.9,89-17.9z"/>
		</g>
		<g>
			<path class="st1" d="M86.6-20.9c-0.1,0-0.2-0.1-0.2-0.3c0-0.2,0.1-0.3,0.2-0.3l3.2-0.6c0.1,0,0.2,0.1,0.3,0.3
				c0,0.2-0.1,0.3-0.2,0.3L86.6-20.9C86.6-20.9,86.6-20.9,86.6-20.9z"/>
		</g>
	</g>
</g>
<g>
	<g>
		<g>
			<path class="st1" d="M7.5-6.8c-0.5,0-1-0.1-1.3-0.3C5.8-7.3,5.5-7.6,5.3-7.9C5.1-8.3,5-8.8,5-9.3c0-0.6,0.1-1,0.3-1.4
				s0.5-0.6,0.9-0.8c0.4-0.2,0.8-0.3,1.3-0.3c0.5,0,1,0.1,1.3,0.3c0.4,0.2,0.7,0.5,0.8,0.8C9.9-10.4,10-9.9,10-9.3
				c0,0.6-0.1,1-0.3,1.4C9.5-7.6,9.2-7.3,8.8-7.1C8.5-6.9,8-6.8,7.5-6.8z M7.5-7.7c0.2,0,0.4,0,0.6-0.1C8.3-7.9,8.4-8,8.5-8.1
				c0.1-0.1,0.2-0.3,0.3-0.5C8.9-8.8,8.9-9,8.9-9.2v-0.2c0-0.2,0-0.5-0.1-0.7c-0.1-0.2-0.2-0.4-0.3-0.5c-0.1-0.1-0.3-0.2-0.4-0.3
				C7.9-10.9,7.7-11,7.5-11c-0.2,0-0.4,0-0.6,0.1c-0.2,0.1-0.3,0.2-0.4,0.3c-0.1,0.1-0.2,0.3-0.3,0.5C6.1-9.9,6.1-9.7,6.1-9.4v0.2
				c0,0.2,0,0.5,0.1,0.7c0.1,0.2,0.1,0.4,0.3,0.5C6.6-8,6.7-7.9,6.9-7.8C7.1-7.7,7.3-7.7,7.5-7.7z"/>
			<path class="st1" d="M12.9-6.8c-0.4,0-0.8-0.1-1.1-0.2c-0.3-0.1-0.6-0.4-0.7-0.6c-0.2-0.3-0.3-0.6-0.3-1.1v-3h1.1v3
				c0,0.3,0.1,0.6,0.3,0.8c0.2,0.2,0.4,0.3,0.8,0.3c0.3,0,0.6-0.1,0.8-0.3C13.9-8.2,14-8.4,14-8.8v-3h1.1v3c0,0.4-0.1,0.8-0.3,1.1
				c-0.2,0.3-0.4,0.5-0.7,0.6C13.8-6.9,13.4-6.8,12.9-6.8z"/>
			<path class="st1" d="M17.3-6.9v-4h-1.5v-0.9h4.2v0.9h-1.6v4H17.3z"/>
		</g>
	</g>
	<g>
		<g>
			<g>
				<g>
					<g>
						<rect x="4.3" y="-23.9" class="st1" width="2" height="5.7"/>
					</g>
				</g>
				<g>
					<g>
						<path class="st1" d="M12.6-28c-3.3,3.9-5.9,4.1-5.9,4.1v5.7c0,0,2.6,0.2,5.9,4.1c0.2,0.2,0.5,0,0.5-0.3v-3.7v-5.7v-3.7
							C13.1-28,12.8-28.2,12.6-28z"/>
					</g>
				</g>
			</g>
		</g>
		<g>
			<g>
				<path class="st1" d="M16.5-17.5v-0.8c0.8,0,1.4-1.3,1.4-2.8c0-1.5-0.6-2.8-1.4-2.8v-0.8c1.1,0,2,1.6,2,3.6
					C18.5-19.1,17.6-17.5,16.5-17.5z"/>
			</g>
			<g>
				<path class="st1" d="M14.7-18.3v-0.6c0.8,0,1.4-0.9,1.4-2.1c0-1.1-0.6-2.1-1.4-2.1v-0.6c1.1,0,2,1.2,2,2.6
					C16.7-19.5,15.8-18.3,14.7-18.3z"/>
			</g>
			<g>
				<path class="st1" d="M17.7-16.1v-0.8c1.3,0,2.4-1.9,2.4-4.3c0-2.4-1.1-4.3-2.4-4.3v-0.8c1.7,0,3,2.3,3,5S19.3-16.1,17.7-16.1z"
					/>
			</g>
		</g>
	</g>
</g>
<g>
	<g>
		<g>
			<path class="st1" d="M54-7.1c-0.5,0-1-0.1-1.3-0.3c-0.4-0.2-0.7-0.5-0.9-0.8c-0.2-0.4-0.3-0.8-0.3-1.4c0-0.6,0.1-1,0.3-1.4
				c0.2-0.4,0.5-0.6,0.9-0.8c0.4-0.2,0.8-0.3,1.3-0.3c0.5,0,1,0.1,1.3,0.3c0.4,0.2,0.7,0.5,0.8,0.8s0.3,0.8,0.3,1.4
				c0,0.6-0.1,1-0.3,1.4c-0.2,0.4-0.5,0.6-0.8,0.8C55-7.2,54.6-7.1,54-7.1z M54-7.9c0.2,0,0.4,0,0.6-0.1c0.2-0.1,0.3-0.2,0.4-0.3
				c0.1-0.1,0.2-0.3,0.3-0.5c0.1-0.2,0.1-0.4,0.1-0.7v-0.2c0-0.2,0-0.5-0.1-0.7c-0.1-0.2-0.2-0.4-0.3-0.5c-0.1-0.1-0.3-0.2-0.4-0.3
				c-0.2-0.1-0.4-0.1-0.6-0.1c-0.2,0-0.4,0-0.6,0.1c-0.2,0.1-0.3,0.2-0.4,0.3c-0.1,0.1-0.2,0.3-0.3,0.5c-0.1,0.2-0.1,0.4-0.1,0.7
				v0.2c0,0.2,0,0.5,0.1,0.7c0.1,0.2,0.1,0.4,0.3,0.5c0.1,0.1,0.3,0.2,0.4,0.3C53.6-8,53.8-7.9,54-7.9z"/>
			<path class="st1" d="M59.5-7.1c-0.4,0-0.8-0.1-1.1-0.2c-0.3-0.1-0.6-0.4-0.7-0.6c-0.2-0.3-0.3-0.6-0.3-1.1v-3h1.1v3
				c0,0.3,0.1,0.6,0.3,0.8c0.2,0.2,0.4,0.3,0.8,0.3c0.3,0,0.6-0.1,0.8-0.3c0.2-0.2,0.3-0.5,0.3-0.8v-3h1.1v3c0,0.4-0.1,0.8-0.3,1.1
				c-0.2,0.3-0.4,0.5-0.7,0.6C60.3-7.2,59.9-7.1,59.5-7.1z"/>
			<path class="st1" d="M63.8-7.2v-4h-1.5V-12h4.2v0.9h-1.6v4H63.8z"/>
		</g>
	</g>
	<g>
		<g>
			<g>
				<g>
					<g>
						<rect x="50.3" y="-24" class="st1" width="2.2" height="5.3"/>
					</g>
				</g>
				<g>
					<g>
						<path class="st1" d="M59.5-27.8c-3.7,3.6-6.5,3.8-6.5,3.8v5.3c0,0,2.8,0.1,6.5,3.8c0.2,0.2,0.6,0,0.6-0.3v-3.5V-24v-3.5
							C60-27.8,59.7-28,59.5-27.8z"/>
					</g>
				</g>
				<g>
					<g>
						<path class="st1" d="M60.6-24.1v5.1c1-0.3,1.7-1.3,1.7-2.6C62.3-22.8,61.6-23.9,60.6-24.1z"/>
					</g>
				</g>
			</g>
		</g>
		<g>
			<g>
				<path class="st1" d="M64.3-23.2c-0.1,0-0.1,0-0.2-0.1c-0.1-0.1-0.1-0.3,0.1-0.4l2-1.9c0.1-0.1,0.2-0.1,0.3,0.1
					c0.1,0.1,0.1,0.3-0.1,0.4l-2,1.9C64.4-23.3,64.3-23.2,64.3-23.2z"/>
			</g>
			<g>
				<path class="st1" d="M66.8-18.3C66.8-18.3,66.8-18.3,66.8-18.3l-2.4-1.2c-0.1-0.1-0.2-0.2-0.1-0.4c0-0.2,0.2-0.2,0.3-0.2
					l2.3,1.2c0.1,0.1,0.2,0.2,0.1,0.4C67-18.4,66.9-18.3,66.8-18.3z"/>
			</g>
			<g>
				<path class="st1" d="M64.4-21.3c-0.1,0-0.2-0.1-0.2-0.3c0-0.2,0.1-0.3,0.2-0.3l3.2-0.6c0.1,0,0.2,0.1,0.3,0.3
					c0,0.2-0.1,0.3-0.2,0.3L64.4-21.3C64.4-21.3,64.4-21.3,64.4-21.3z"/>
			</g>
		</g>
	</g>
</g>
<g>
	<g>
		<g>
			<path class="st1" d="M30.8-7.1c-0.5,0-1-0.1-1.3-0.3c-0.4-0.2-0.7-0.5-0.9-0.8c-0.2-0.4-0.3-0.8-0.3-1.4c0-0.6,0.1-1,0.3-1.4
				c0.2-0.4,0.5-0.6,0.9-0.8c0.4-0.2,0.8-0.3,1.3-0.3c0.5,0,1,0.1,1.3,0.3c0.4,0.2,0.7,0.5,0.8,0.8s0.3,0.8,0.3,1.4
				c0,0.6-0.1,1-0.3,1.4c-0.2,0.4-0.5,0.6-0.8,0.8C31.7-7.2,31.3-7.1,30.8-7.1z M30.8-7.9c0.2,0,0.4,0,0.6-0.1
				c0.2-0.1,0.3-0.2,0.4-0.3c0.1-0.1,0.2-0.3,0.3-0.5c0.1-0.2,0.1-0.4,0.1-0.7v-0.2c0-0.2,0-0.5-0.1-0.7c-0.1-0.2-0.2-0.4-0.3-0.5
				c-0.1-0.1-0.3-0.2-0.4-0.3c-0.2-0.1-0.4-0.1-0.6-0.1c-0.2,0-0.4,0-0.6,0.1c-0.2,0.1-0.3,0.2-0.4,0.3c-0.1,0.1-0.2,0.3-0.3,0.5
				c-0.1,0.2-0.1,0.4-0.1,0.7v0.2c0,0.2,0,0.5,0.1,0.7c0.1,0.2,0.1,0.4,0.3,0.5C29.9-8.2,30-8.1,30.2-8C30.3-8,30.5-7.9,30.8-7.9z"
				/>
			<path class="st1" d="M36.2-7.1c-0.4,0-0.8-0.1-1.1-0.2c-0.3-0.1-0.6-0.4-0.7-0.6c-0.2-0.3-0.3-0.6-0.3-1.1v-3h1.1v3
				c0,0.3,0.1,0.6,0.3,0.8c0.2,0.2,0.4,0.3,0.8,0.3c0.3,0,0.6-0.1,0.8-0.3c0.2-0.2,0.3-0.5,0.3-0.8v-3h1.1v3c0,0.4-0.1,0.8-0.3,1.1
				c-0.2,0.3-0.4,0.5-0.7,0.6C37-7.2,36.6-7.1,36.2-7.1z"/>
			<path class="st1" d="M40.6-7.2v-4H39V-12h4.2v0.9h-1.6v4H40.6z"/>
		</g>
	</g>
	<g>
		<g>
			<g>
				<g>
					<g>
						<rect x="27.4" y="-24" class="st1" width="2.2" height="5.3"/>
					</g>
				</g>
				<g>
					<g>
						<path class="st1" d="M36.6-27.8C32.9-24.1,30-24,30-24v5.3c0,0,2.8,0.1,6.5,3.8c0.2,0.2,0.6,0,0.6-0.3v-3.5V-24v-3.5
							C37.1-27.8,36.8-28,36.6-27.8z"/>
					</g>
				</g>
				<g>
					<g>
						<path class="st1" d="M37.7-24.1v5.1c1-0.3,1.7-1.3,1.7-2.6C39.4-22.8,38.7-23.9,37.7-24.1z"/>
					</g>
				</g>
			</g>
		</g>
		<g>
			<g>
				<path class="st1" d="M40.3-18.4V-19c0.7,0,1.3-1.1,1.3-2.3s-0.6-2.3-1.3-2.3v-0.6c1,0,1.8,1.3,1.8,3
					C42.1-19.7,41.3-18.4,40.3-18.4z"/>
			</g>
			<g>
				<path class="st1" d="M41.6-17.2v-0.6c1.1,0,2-1.6,2-3.5c0-1.9-0.9-3.5-2-3.5v-0.6c1.4,0,2.5,1.9,2.5,4.2S43-17.2,41.6-17.2z"/>
			</g>
		</g>
	</g>
</g>
</svg>
