<?xml version="1.0" encoding="utf-8"?>
<!-- Generator: Adobe Illustrator 25.2.3, SVG Export Plug-In . SVG Version: 6.00 Build 0)  -->
<svg version="1.1" xmlns="http://www.w3.org/2000/svg" xmlns:xlink="http://www.w3.org/1999/xlink" x="0px" y="0px"
	 viewBox="0 0 24 24" style="enable-background:new 0 0 24 24;" xml:space="preserve">
<style type="text/css">
	.st0{fill:#EEEEEE;}
	.st1{display:none;}
	.st2{display:inline;}
	.st3{fill:#FFFFFF;}
</style>
<g id="Layer_2_1_">
	<path class="st0" d="M22.2,12.2L22.2,12.2c-1.5-0.7-2-2.7-0.9-4h0c1.8-2.1-0.7-5.2-3.1-3.9c-1.5,0.8-3.3-0.1-3.7-1.8
		c-0.6-2.7-4.5-2.7-5,0C9.1,4.2,7.3,5.1,5.8,4.3C3.3,3.1,0.9,6.1,2.7,8.2h0c1.1,1.3,0.6,3.3-0.9,4h0c-2.5,1.2-1.7,4.9,1.1,4.9
		c1.7,0,2.9,1.5,2.5,3.2C4.8,23,8.3,24.7,10,22.5h0c1-1.3,3-1.3,4.1,0h0c1.7,2.2,5.2,0.5,4.5-2.2c-0.4-1.6,0.9-3.2,2.5-3.2
		C23.9,17.2,24.8,13.4,22.2,12.2z M12,17c-2.6,0-4.8-2.1-4.8-4.8c0-2.6,2.1-4.8,4.8-4.8s4.8,2.1,4.8,4.8C16.8,14.9,14.6,17,12,17z"
		/>
</g>
<g id="Layer_3" class="st1">
	<g class="st2">
		<path class="st0" d="M14.5,2.5L14.5,2.5c0.4,1.6,2.2,2.5,3.7,1.8l0,0c2.5-1.2,4.9,1.8,3.1,3.9l0,0c-1.1,1.3-0.6,3.3,0.9,4l0,0
			c2.5,1.2,1.7,4.9-1.1,4.9h0c-1.7,0-2.9,1.5-2.5,3.2l0,0c0.7,2.7-2.8,4.4-4.5,2.2l0,0c-1-1.3-3-1.3-4.1,0l0,0
			c-1.7,2.2-5.2,0.5-4.5-2.2l0,0c0.4-1.6-0.9-3.2-2.5-3.2h0c-2.8,0-3.6-3.7-1.1-4.9l0,0c1.5-0.7,2-2.7,0.9-4l0,0
			C0.9,6.1,3.3,3.1,5.8,4.3l0,0c1.5,0.8,3.3-0.1,3.7-1.8l0,0C10.1-0.2,13.9-0.2,14.5,2.5z"/>
		<circle class="st3" cx="12" cy="12.2" r="4.8"/>
	</g>
</g>
</svg>
