<?xml version="1.0" encoding="utf-8"?>
<!-- Generator: Adobe Illustrator 25.2.3, SVG Export Plug-In . SVG Version: 6.00 Build 0)  -->
<svg version="1.1" id="Layer_1" xmlns="http://www.w3.org/2000/svg" xmlns:xlink="http://www.w3.org/1999/xlink" x="0px" y="0px"
	 viewBox="0 0 24 24" style="enable-background:new 0 0 24 24;" xml:space="preserve">
<style type="text/css">
	.st0{fill:#EEEEEE;}
</style>
<g>
	<path class="st0" d="M19,12.3c0.6,0,1,0.4,1,1V20c0,0.6-0.4,1-1,1H5c-0.6,0-1-0.4-1-1v-6.7c0-0.6,0.4-1,1-1H19 M19,10.3H5
		c-1.7,0-3,1.3-3,3V20c0,1.7,1.3,3,3,3h14c1.7,0,3-1.3,3-3v-6.7C22,11.6,20.7,10.3,19,10.3L19,10.3z"/>
	<circle class="st0" cx="12" cy="16.6" r="2"/>
	<path class="st0" d="M12,1C8.7,1,6,3.7,6,7v5.1h2V7c0-2.2,1.8-4,4-4s4,1.8,4,4c0,0.6,0.4,1,1,1c0.6,0,1-0.4,1-1C18,3.7,15.3,1,12,1
		z"/>
</g>
</svg>
