<?xml version="1.0" encoding="utf-8"?>
<!-- Generator: Adobe Illustrator 25.2.3, SVG Export Plug-In . SVG Version: 6.00 Build 0)  -->
<svg version="1.1" id="Layer_2_1_" xmlns="http://www.w3.org/2000/svg" xmlns:xlink="http://www.w3.org/1999/xlink" x="0px" y="0px"
	 viewBox="0 0 24 24" style="enable-background:new 0 0 24 24;" xml:space="preserve">
<style type="text/css">
	.st0{fill:#EEEEEE;}
</style>
<g>
	<circle class="st0" cx="7.9" cy="8" r="3.8"/>
	<circle class="st0" cx="17.2" cy="8.5" r="3.3"/>
	<g>
		<path class="st0" d="M17.1,18.7h6.2c0.4,0,0.7-0.4,0.7-0.8c-0.3-3-2.3-5.4-4.9-5.5c-0.6,0.4-1.3,0.6-2,0.6s-1.4-0.2-2-0.6
			c-0.5,0.1-1,0.1-1.5,0.4C15.5,14,16.8,16.2,17.1,18.7z"/>
		<path class="st0" d="M15.7,18.7c-0.3-2.5-1.6-4.5-3.3-5.6c-0.7-0.4-1.5-0.6-2.3-0.7C9.5,12.8,8.7,13,7.8,13s-1.6-0.2-2.3-0.6
			c-3,0.2-5.4,3-5.6,6.6c0,0.4,0.3,0.8,0.7,0.8H15c0.4,0,0.7-0.4,0.7-0.7C15.7,18.9,15.7,18.8,15.7,18.7z"/>
	</g>
</g>
</svg>
