<?xml version="1.0" encoding="utf-8"?>
<!-- Generator: Adobe Illustrator 25.2.3, SVG Export Plug-In . SVG Version: 6.00 Build 0)  -->
<svg version="1.1" id="Layer_2_1_" xmlns="http://www.w3.org/2000/svg" xmlns:xlink="http://www.w3.org/1999/xlink" x="0px" y="0px"
	 viewBox="0 0 24 24" style="enable-background:new 0 0 24 24;" xml:space="preserve">
<style type="text/css">
	.st0{fill:#EEEEEE;}
</style>
<g>
	<g>
		<g>
			<g>
				<path class="st0" d="M16.1,8.5c0-0.1-0.1-0.4-0.4-0.4c-0.1,0-0.2,0.1-0.2,0.4c0,1.9-1.5,3.5-3.5,3.5s-3.5-1.5-3.5-3.5
					c0-0.1-0.1-0.4-0.4-0.4C8,8.1,7.9,8.3,7.9,8.5c0,2,1.4,3.6,3.3,4v2h-0.9c-0.1,0-0.4,0.1-0.4,0.3V15c0,0.1,0.1,0.4,0.4,0.4h0.9
					h1.8h0.9c0.1,0,0.4-0.1,0.4-0.4v-0.2c0-0.1-0.1-0.3-0.4-0.3h-0.9v-2C14.7,12.1,16.1,10.4,16.1,8.5z"/>
			</g>
			<path class="st0" d="M12,10.9L12,10.9c-1.3,0-2.5-1.1-2.5-2.4V3.8c0-1.3,1.1-2.4,2.4-2.4h0c1.3,0,2.4,1.1,2.4,2.4v4.7
				C14.4,9.8,13.3,10.9,12,10.9z"/>
		</g>
	</g>
	<g>
		<path class="st0" d="M8.7,22.6v-5h1.1v5H8.7z"/>
		<path class="st0" d="M10.9,22.6v-5h1l2,2.7c0,0,0.1,0.1,0.1,0.1c0,0.1,0.1,0.1,0.1,0.2c0,0.1,0.1,0.1,0.1,0.1h0c0-0.1,0-0.2,0-0.2
			c0-0.1,0-0.2,0-0.2v-2.7h1v5h-1l-2.1-2.8c0-0.1-0.1-0.1-0.2-0.2C12,19.6,12,19.5,12,19.5h0c0,0.1,0,0.1,0,0.2c0,0.1,0,0.1,0,0.2
			v2.8H10.9z"/>
	</g>
</g>
</svg>
