<?xml version="1.0" encoding="utf-8"?>
<!-- Generator: Adobe Illustrator 25.2.3, SVG Export Plug-In . SVG Version: 6.00 Build 0)  -->
<svg version="1.1" id="Layer_2_1_" xmlns="http://www.w3.org/2000/svg" xmlns:xlink="http://www.w3.org/1999/xlink" x="0px" y="0px"
	 viewBox="0 0 24 24" style="enable-background:new 0 0 24 24;" xml:space="preserve">
<style type="text/css">
	.st0{fill:#EEEEEE;}
</style>
<path class="st0" d="M19.5,6h-7.7l-0.6-1.3C10.9,3.8,10.4,3,9.3,3h-6c-1,0-1.7,0.8-1.7,1.7V6v12c0,1.6,1.4,3,3,3h15c1.7,0,3-1.4,3-3
	V9C22.5,7.3,21.2,6,19.5,6z M7.4,17.5c0,0.1-0.1,0.3-0.3,0.3H5.6c-0.1,0-0.3-0.1-0.3-0.3v-1.3c0-0.1,0.1-0.3,0.3-0.3h1.5
	c0.1,0,0.3,0.1,0.3,0.3V17.5z M7.4,14.1c0,0.1-0.1,0.3-0.3,0.3H5.6c-0.1,0-0.3-0.1-0.3-0.3v-1.3c0-0.1,0.1-0.3,0.3-0.3h1.5
	c0.1,0,0.3,0.1,0.3,0.3V14.1z M7.4,10.8c0,0.1-0.1,0.3-0.3,0.3H5.6c-0.1,0-0.3-0.1-0.3-0.3V9.5c0-0.1,0.1-0.3,0.3-0.3h1.5
	c0.1,0,0.3,0.1,0.3,0.3V10.8z M18.6,17.5c0,0.2-0.1,0.3-0.3,0.3H8.9c-0.2,0-0.3-0.1-0.3-0.3v-1.2c0-0.2,0.1-0.3,0.3-0.3h9.4
	c0.2,0,0.3,0.1,0.3,0.3V17.5z M18.6,14.1c0,0.2-0.1,0.3-0.3,0.3H8.9c-0.2,0-0.3-0.1-0.3-0.3v-1.2c0-0.2,0.1-0.3,0.3-0.3h9.4
	c0.2,0,0.3,0.1,0.3,0.3V14.1z M18.6,10.7c0,0.2-0.1,0.3-0.3,0.3H8.9c-0.2,0-0.3-0.1-0.3-0.3V9.5c0-0.2,0.1-0.3,0.3-0.3h9.4
	c0.2,0,0.3,0.1,0.3,0.3V10.7z"/>
</svg>
