<?xml version="1.0" encoding="utf-8"?>
<!-- Generator: Adobe Illustrator 25.2.3, SVG Export Plug-In . SVG Version: 6.00 Build 0)  -->
<svg version="1.1" id="Layer_2_1_" xmlns="http://www.w3.org/2000/svg" xmlns:xlink="http://www.w3.org/1999/xlink" x="0px" y="0px"
	 viewBox="0 0 24 24" style="enable-background:new 0 0 24 24;" xml:space="preserve">
<style type="text/css">
	.st0{fill:#EEEEEE;}
</style>
<g>
	<path class="st0" d="M23.1,7.5l-2.5,1.5c-0.5,0.3-1,0.6-1.1,0.6c-0.1,0-0.1,0.1-0.1,0.1V7.2c0-1.6-1.3-2.9-2.9-2.9H2.9
		C1.3,4.3,0,5.6,0,7.2v9.6c0,1.6,1.3,2.9,2.9,2.9h13.5c1.6,0,2.9-1.3,2.9-2.9v-2.5c0,0,0.1,0,0.1,0.1c0.1,0,0.6,0.3,1.1,0.6l2.5,1.5
		c0.5,0.3,0.9,0.1,0.9-0.5v-2.9c0-0.6,0-1.6,0-2.2V8C24,7.4,23.6,7.2,23.1,7.5z M10,18.5c-3.3,0-6-2.7-6-6s2.7-6,6-6
		c3.3,0,6,2.7,6,6S13.3,18.5,10,18.5z"/>
	<g>
		
			<rect x="7.4" y="13.1" transform="matrix(-1.836970e-16 1 -1 -1.836970e-16 23.8637 3.9133)" class="st0" width="5.1" height="1.5"/>
		<circle class="st0" cx="10" cy="9.3" r="0.9"/>
	</g>
</g>
</svg>
