<?xml version="1.0" encoding="utf-8"?>
<!-- Generator: Adobe Illustrator 25.2.3, SVG Export Plug-In . SVG Version: 6.00 Build 0)  -->
<svg version="1.1" id="Layer_1" xmlns="http://www.w3.org/2000/svg" xmlns:xlink="http://www.w3.org/1999/xlink" x="0px" y="0px"
	 viewBox="0 0 24 24" style="enable-background:new 0 0 24 24;" xml:space="preserve">
<style type="text/css">
	.st0{fill:none;stroke:#EEEEEE;stroke-width:2;stroke-linecap:round;stroke-linejoin:round;stroke-miterlimit:10;}
	.st1{fill:none;stroke:#EEEEEE;stroke-width:1.5;stroke-linecap:round;stroke-linejoin:round;stroke-miterlimit:10;}
</style>
<path class="st0" d="M-20,2.2l-7.8,7.8c-1.9,1.9-4.9,2-6.6,0.3l0,0c-1.7-1.8-1.6-4.8,0.3-6.7l9.1-9.1c1.3-1.3,3.2-1.3,4.3-0.2
	l0.1,0.1c1.2,1.1,1.1,3.1-0.2,4.3l-7.8,7.8c-1,1-2.2,1.3-2.8,0.7l0,0c-0.6-0.6-0.3-1.8,0.7-2.8l5-5"/>
<path class="st1" d="M19.7,11.7l-7.8,7.8c-1.9,1.9-4.9,2-6.6,0.3l0,0C3.6,18,3.7,15,5.6,13.1L14.7,4C16,2.7,17.9,2.7,19,3.8l0.1,0.1
	C20.3,5,20.2,7,18.9,8.2L11.1,16c-1,1-2.2,1.3-2.8,0.7l0,0c-0.6-0.6-0.3-1.8,0.7-2.8l5-5"/>
</svg>
