<?xml version="1.0" encoding="utf-8"?>
<!-- Generator: Adobe Illustrator 25.2.3, SVG Export Plug-In . SVG Version: 6.00 Build 0)  -->
<svg version="1.1" id="Layer_1" xmlns="http://www.w3.org/2000/svg" xmlns:xlink="http://www.w3.org/1999/xlink" x="0px" y="0px"
	 viewBox="0 0 24 24" style="enable-background:new 0 0 24 24;" xml:space="preserve">
<style type="text/css">
	.st0{fill:#A4B1BD;}
</style>
<path class="st0" d="M4.6,12c1-0.9,2.3,0.2,2.3,0.2l1.6,1.7V3.5c0-0.7,0.6-1.2,1.2-1.2l0,0c0.7,0,1.2,0.6,1.2,1.2v7.8h0.5v-9
	c0-0.6,0.4-1.1,1-1.2c0.8-0.2,1.5,0.4,1.5,1.2v9.1h0.5V4.3c0-0.6,0.4-1.1,1-1.2c0.8-0.2,1.5,0.4,1.5,1.2v7.2h0.5V6.3
	c0-0.6,0.4-1.1,1-1.2c0.8-0.2,1.5,0.4,1.5,1.2V14l0,0c0,0,0,3.9-1.2,5.5c-1.4,1.7-4.7,1.6-4.7,1.6c-4.4,0-5.1-1.6-5.1-1.6
	C8.5,18.4,7.5,17,7.5,17c-0.9-1.9-2.6-3-2.6-3C3.7,13,4.6,12,4.6,12z"/>
</svg>
