<?xml version="1.0" encoding="utf-8"?>
<!-- Generator: Adobe Illustrator 25.2.3, SVG Export Plug-In . SVG Version: 6.00 Build 0)  -->
<svg version="1.1" id="Layer_1" xmlns="http://www.w3.org/2000/svg" xmlns:xlink="http://www.w3.org/1999/xlink" x="0px" y="0px"
	 viewBox="0 0 24 24" style="enable-background:new 0 0 24 24;" xml:space="preserve">
<style type="text/css">
	.st0{fill:#141617;}
	.st1{fill:#EEEEEE;}
</style>
<polygon class="st0" points="18.1,8.8 9.5,17.5 8.7,15.7 6.5,14.6 15.2,5.9 "/>
<path class="st1" d="M19.5,7.3c0-0.8-0.3-1.5-0.8-2c-1-1-2.6-1.1-3.7-0.3l0,0l-0.3,0.3l0,0l0,0l-9,9.1l-1.1,4
	c-0.1,0.3,0,0.6,0.3,0.8c0.1,0.2,0.3,0.3,0.5,0.3c0.1,0,0.2,0,0.3,0l4-1.1l9.3-9.3l0,0C19.3,8.6,19.5,8,19.5,7.3z M18.1,5.9
	c0.4,0.4,0.6,0.8,0.6,1.4c0,0.4-0.1,0.8-0.3,1.1l-2.8-2.8C16.3,5.2,17.3,5.2,18.1,5.9z M8.2,15.8l0.7,1.8l-1.7,0.4l-1.3-1.3l0.4-1.7
	L8.2,15.8z M8.3,15.1l-1.6-0.6l8.2-8.2L16,7.4L8.3,15.1z M5.3,18.7l0.3-0.8l0.7,0.7L5.3,18.7z M9.6,17.3L9,15.7L16.7,8l1.1,1.1
	L9.6,17.3z"/>
<path class="st1" d="M15.3,5.7c0.8-0.8,2.2-0.8,3,0s0.8,2.2,0,3L15.3,5.7z"/>
<rect x="5" y="17.7" class="st1" width="1.3" height="1.3"/>
</svg>
