<?xml version="1.0" encoding="utf-8"?>
<!-- Generator: Adobe Illustrator 25.2.3, SVG Export Plug-In . SVG Version: 6.00 Build 0)  -->
<svg version="1.1" id="Layer_1" xmlns="http://www.w3.org/2000/svg" xmlns:xlink="http://www.w3.org/1999/xlink" x="0px" y="0px"
	 viewBox="0 0 24 24" style="enable-background:new 0 0 24 24;" xml:space="preserve">
<style type="text/css">
	.st0{fill:#FFFFFF;}
</style>
<g>
	<path class="st0" d="M7.8,15.8L7.5,18c0,0,0,0.1,0.1,0l1.8-1v-0.1L7.8,15.8C7.9,15.7,7.8,15.7,7.8,15.8z"/>
	<g>
		<path class="st0" d="M8.1,15L8.1,15L8.1,15z"/>
		<path class="st0" d="M2.1,10.1l3.3,2.8l0,0l0.9,4.5h0.1L7,14.1l0,0l9-5.7l0,0c0,0,0.3-0.1,0.4,0c0,0,0.1,0.2-0.1,0.4L8,15v0.1
			l5.2,4.3c0.2,0.1,0.4,0.1,0.5-0.1l8.1-14.1c0.2-0.3-0.1-0.7-0.5-0.6L2.2,9.5C2,9.6,1.9,9.9,2.1,10.1z"/>
	</g>
</g>
</svg>
