<?xml version="1.0" encoding="utf-8"?>
<!-- Generator: Adobe Illustrator 25.2.3, SVG Export Plug-In . SVG Version: 6.00 Build 0)  -->
<svg version="1.1" id="Layer_2_1_" xmlns="http://www.w3.org/2000/svg" xmlns:xlink="http://www.w3.org/1999/xlink" x="0px" y="0px"
	 viewBox="0 0 24 24" style="enable-background:new 0 0 24 24;" xml:space="preserve">
<style type="text/css">
	.st0{fill:#EEEEEE;}
</style>
<g>
	<path d="M-19,7.6c-4.8,3.9-8.5,4-8.5,4v0h-1.4c-0.3,0-0.5,0.2-0.5,0.5v4.7c0,0.3,0.2,0.5,0.5,0.5h1.4v0c0,0,3.7,0.2,8.5,4
		c0.3,0.2,0.8,0,0.8-0.4v-3.8v-5.6V7.8C-18.3,7.6-18.7,7.4-19,7.6z"/>
	<path d="M-17.5,11.5V17c1.2-0.3,2.2-1.4,2.2-2.7C-15.3,13-16.3,11.8-17.5,11.5z"/>
</g>
<g>
	<g>
		<path class="st0" d="M-26.6-12c-4.8,3.9-8.5,4-8.5,4v0h-1.4c-0.3,0-0.5,0.2-0.5,0.5v4.7c0,0.3,0.2,0.5,0.5,0.5h1.4v0
			c0,0,3.7,0.2,8.5,4c0.3,0.2,0.8,0,0.8-0.4v-3.8V-8v-3.8C-25.9-12-26.3-12.1-26.6-12z"/>
		<path class="st0" d="M-25.1-8v5.5c1.2-0.3,2.2-1.4,2.2-2.7C-22.9-6.5-23.9-7.7-25.1-8z"/>
		<path class="st0" d="M-21.9-8.2v0.7c0.9,0,1.7,1.1,1.7,2.5s-0.8,2.5-1.7,2.5v0.7c1.3,0,2.3-1.4,2.3-3.2S-20.6-8.2-21.9-8.2z"/>
		<path class="st0" d="M-20.1-9.4v0.7c1.4,0,2.5,1.7,2.5,3.8s-1.1,3.8-2.5,3.8v0.7c1.8,0,3.2-1.8,3.2-4.3
			C-16.9-7.4-18.3-9.4-20.1-9.4z"/>
	</g>
	<g>
		<path class="st0" d="M-32-13.7v-4.6h-1.5v-1h4.2v1H-31v4.6H-32z"/>
		<path class="st0" d="M-27.5-13.7v-4.6h-1.5v-1h4.2v1h-1.6v4.6H-27.5z"/>
		<path class="st0" d="M-22.3-13.6c-0.3,0-0.5,0-0.8-0.1c-0.3-0.1-0.5-0.2-0.7-0.3c-0.2-0.1-0.3-0.3-0.5-0.5
			c-0.1-0.2-0.2-0.5-0.2-0.8c0,0,0-0.1,0-0.1c0,0,0-0.1,0-0.1h1c0,0,0,0,0,0.1c0,0,0,0.1,0,0.1c0,0.2,0,0.3,0.1,0.4
			c0.1,0.1,0.2,0.2,0.4,0.3c0.2,0.1,0.3,0.1,0.6,0.1c0.1,0,0.3,0,0.4,0c0.1,0,0.2,0,0.3-0.1s0.1-0.1,0.2-0.1c0.1,0,0.1-0.1,0.1-0.2
			c0-0.1,0-0.1,0-0.2c0-0.1,0-0.3-0.1-0.4c-0.1-0.1-0.2-0.2-0.3-0.2c-0.1-0.1-0.3-0.1-0.5-0.2c-0.2-0.1-0.4-0.1-0.5-0.2
			c-0.2-0.1-0.4-0.1-0.5-0.2c-0.2-0.1-0.3-0.2-0.5-0.3c-0.1-0.1-0.3-0.3-0.3-0.5s-0.1-0.4-0.1-0.7c0-0.3,0.1-0.5,0.2-0.7
			c0.1-0.2,0.2-0.4,0.4-0.5c0.2-0.1,0.4-0.2,0.6-0.3c0.2-0.1,0.5-0.1,0.8-0.1c0.3,0,0.5,0,0.7,0.1s0.4,0.2,0.6,0.3
			c0.2,0.1,0.3,0.3,0.4,0.5c0.1,0.2,0.2,0.5,0.2,0.7v0.1h-1v-0.1c0-0.1,0-0.3-0.1-0.4c-0.1-0.1-0.2-0.2-0.3-0.2
			c-0.1-0.1-0.3-0.1-0.5-0.1c-0.2,0-0.4,0-0.5,0.1c-0.1,0-0.2,0.1-0.3,0.2c-0.1,0.1-0.1,0.2-0.1,0.3c0,0.1,0,0.2,0.1,0.3
			s0.2,0.2,0.3,0.2s0.3,0.1,0.5,0.2c0.2,0,0.4,0.1,0.5,0.2c0.2,0.1,0.4,0.1,0.5,0.2c0.2,0.1,0.3,0.2,0.5,0.3
			c0.1,0.1,0.3,0.3,0.3,0.5c0.1,0.2,0.1,0.4,0.1,0.6c0,0.4-0.1,0.8-0.3,1s-0.4,0.5-0.7,0.6C-21.6-13.7-21.9-13.6-22.3-13.6z"/>
	</g>
</g>
<g>
	<path class="st0" d="M6.9,7.5V2.9H5.3v-1h4.2v1H7.9v4.6H6.9z"/>
	<path class="st0" d="M11.4,7.5V2.9H9.9v-1H14v1h-1.6v4.6H11.4z"/>
	<path class="st0" d="M16.6,7.6c-0.3,0-0.5,0-0.8-0.1c-0.3-0.1-0.5-0.2-0.7-0.3c-0.2-0.1-0.3-0.3-0.5-0.5c-0.1-0.2-0.2-0.5-0.2-0.8
		c0,0,0-0.1,0-0.1c0,0,0-0.1,0-0.1h1c0,0,0,0,0,0.1c0,0,0,0.1,0,0.1c0,0.2,0,0.3,0.1,0.4c0.1,0.1,0.2,0.2,0.4,0.3
		c0.2,0.1,0.3,0.1,0.6,0.1c0.1,0,0.3,0,0.4,0c0.1,0,0.2,0,0.3-0.1s0.1-0.1,0.2-0.1c0.1,0,0.1-0.1,0.1-0.2c0-0.1,0-0.1,0-0.2
		c0-0.1,0-0.3-0.1-0.4c-0.1-0.1-0.2-0.2-0.3-0.2c-0.1-0.1-0.3-0.1-0.5-0.2c-0.2-0.1-0.4-0.1-0.5-0.2c-0.2-0.1-0.4-0.1-0.5-0.2
		c-0.2-0.1-0.3-0.2-0.5-0.3c-0.1-0.1-0.3-0.3-0.3-0.5s-0.1-0.4-0.1-0.7c0-0.3,0.1-0.5,0.2-0.7c0.1-0.2,0.2-0.4,0.4-0.5
		c0.2-0.1,0.4-0.2,0.6-0.3c0.2-0.1,0.5-0.1,0.8-0.1c0.3,0,0.5,0,0.7,0.1S17.8,2,18,2.2c0.2,0.1,0.3,0.3,0.4,0.5
		c0.1,0.2,0.2,0.5,0.2,0.7v0.1h-1V3.4c0-0.1,0-0.3-0.1-0.4c-0.1-0.1-0.2-0.2-0.3-0.2c-0.1-0.1-0.3-0.1-0.5-0.1c-0.2,0-0.4,0-0.5,0.1
		c-0.1,0-0.2,0.1-0.3,0.2c-0.1,0.1-0.1,0.2-0.1,0.3c0,0.1,0,0.2,0.1,0.3s0.2,0.2,0.3,0.2s0.3,0.1,0.5,0.2c0.2,0,0.4,0.1,0.5,0.2
		c0.2,0.1,0.4,0.1,0.5,0.2c0.2,0.1,0.3,0.2,0.5,0.3c0.1,0.1,0.3,0.3,0.3,0.5c0.1,0.2,0.1,0.4,0.1,0.6c0,0.4-0.1,0.8-0.3,1
		S18,7.3,17.7,7.4C17.3,7.5,17,7.6,16.6,7.6z"/>
</g>
<g>
	<g>
		<g>
			<g>
				<g>
					<rect x="3.6" y="12.7" class="st0" width="2.6" height="5.3"/>
				</g>
				<g>
					<path class="st0" d="M14.6,9c-4.4,3.6-7.9,3.8-7.9,3.8V18c0,0,3.4,0.1,7.9,3.8c0.3,0.2,0.7,0,0.7-0.3V18v-5.3V9.3
						C15.3,8.9,14.9,8.7,14.6,9z"/>
				</g>
				<g>
					<path class="st0" d="M16,12.6v5.1c1.2-0.3,2-1.3,2-2.6C18.1,13.9,17.2,12.9,16,12.6z"/>
				</g>
			</g>
		</g>
	</g>
	<g>
		<g>
			<rect x="18.7" y="14.8" class="st0" width="2.6" height="0.7"/>
		</g>
		<g>
			<rect x="18.2" y="12" transform="matrix(0.7071 -0.7071 0.7071 0.7071 -3.0945 17.313)" class="st0" width="2.3" height="0.7"/>
		</g>
		<g>
			<rect x="19" y="16.8" transform="matrix(0.7071 -0.7071 0.7071 0.7071 -7.0039 18.9323)" class="st0" width="0.7" height="2.3"/>
		</g>
	</g>
</g>
</svg>
