<?xml version="1.0" encoding="utf-8"?>
<!-- Generator: Adobe Illustrator 25.2.3, SVG Export Plug-In . SVG Version: 6.00 Build 0)  -->
<svg version="1.1" id="Layer_2_1_" xmlns="http://www.w3.org/2000/svg" xmlns:xlink="http://www.w3.org/1999/xlink" x="0px" y="0px"
	 viewBox="0 0 24 24" style="enable-background:new 0 0 24 24;" xml:space="preserve">
<style type="text/css">
	.st0{fill:#FF0000;}
</style>
<g>
	<g>
		<path class="st0" d="M13.2,21.7H4.2c-1.8,0-3.2-1.5-3.2-3.2v-13c0-1.8,1.5-3.2,3.2-3.2h8.9c1.8,0,3.2,1.5,3.2,3.2v1.1
			c0,0.4-0.4,0.8-0.8,0.8S14.8,7,14.8,6.6V5.5c0-0.9-0.7-1.6-1.6-1.6H4.2c-0.9,0-1.6,0.7-1.6,1.6v13c0,0.9,0.7,1.6,1.6,1.6h8.9
			c0.9,0,1.6-0.7,1.6-1.6v-1.5c0-0.4,0.4-0.8,0.8-0.8s0.8,0.4,0.8,0.8v1.5C16.4,20.3,15,21.7,13.2,21.7z"/>
	</g>
	<path class="st0" d="M22.9,12.2c0.1-0.2,0.1-0.5,0-0.7c0-0.1-0.1-0.2-0.2-0.3L19,7.5c-0.3-0.3-0.9-0.3-1.3,0
		c-0.3,0.3-0.3,0.9,0,1.3L20,11H8.8C8.4,11,8,11.4,8,11.9s0.4,0.9,0.9,0.9H20L17.7,15c-0.3,0.3-0.3,0.9,0,1.3
		c0.2,0.2,0.4,0.3,0.6,0.3c0.2,0,0.5-0.1,0.6-0.3l3.8-3.8C22.8,12.4,22.9,12.3,22.9,12.2z"/>
</g>
</svg>
