<?xml version="1.0" encoding="utf-8"?>
<!-- Generator: Adobe Illustrator 25.2.3, SVG Export Plug-In . SVG Version: 6.00 Build 0)  -->
<svg version="1.1" id="Layer_1" xmlns="http://www.w3.org/2000/svg" xmlns:xlink="http://www.w3.org/1999/xlink" x="0px" y="0px"
	 viewBox="0 0 24 24" style="enable-background:new 0 0 24 24;" xml:space="preserve">
<style type="text/css">
	.st0{fill:#EEEEEE;}
	.st1{fill:#FFFFFF;}
</style>
<path class="st0" d="M19.5,6h-7.7l-0.6-1.3C10.9,3.8,10.4,3,9.3,3h-6c-1,0-1.7,0.8-1.7,1.7V6v12c0,1.6,1.4,3,3,3h15c1.7,0,3-1.4,3-3
	V9C22.5,7.3,21.2,6,19.5,6z M10.5,13.8c0,0.2,0,0.3-0.1,0.4l3.5,2c0.3-0.3,0.7-0.5,1.1-0.5c0.8,0,1.5,0.7,1.5,1.5
	c0,0.8-0.7,1.5-1.5,1.5s-1.5-0.7-1.5-1.5c0-0.1,0-0.3,0.1-0.4l-3.5-2c-0.3,0.3-0.7,0.5-1.1,0.5c-0.8,0-1.5-0.7-1.5-1.5
	s0.7-1.5,1.5-1.5c0.4,0,0.8,0.2,1.1,0.5l3.5-2c0-0.1-0.1-0.3-0.1-0.4c0-0.8,0.7-1.5,1.5-1.5s1.5,0.7,1.5,1.5s-0.7,1.5-1.5,1.5
	c-0.4,0-0.8-0.2-1.1-0.5l-3.5,2C10.5,13.5,10.5,13.6,10.5,13.8z"/>
<g>
	<path class="st0" d="M-18.4,6.6h-7.7l-0.6-1.3c-0.3-0.9-0.9-1.7-2-1.7h-6c-1,0-1.7,0.8-1.7,1.7v1.3v12c0,1.6,1.4,3,3,3h15
		c1.7,0,3-1.4,3-3v-9C-15.4,8-16.7,6.6-18.4,6.6z"/>
	<g>
		<circle class="st1" cx="-22.9" cy="10.9" r="1.5"/>
		<circle class="st1" cx="-22.9" cy="17.9" r="1.5"/>
		<circle class="st1" cx="-28.9" cy="14.4" r="1.5"/>
		<g>
			<rect x="-29.4" y="12.3" transform="matrix(0.866 -0.5001 0.5001 0.866 -9.7881 -11.2538)" class="st1" width="7" height="0.7"/>
		</g>
		<g>
			<rect x="-26.2" y="12.6" transform="matrix(0.5 -0.866 0.866 0.5 -26.9104 -14.3545)" class="st1" width="0.7" height="7"/>
		</g>
	</g>
</g>
</svg>
