<?xml version="1.0" encoding="utf-8"?>
<!-- Generator: Adobe Illustrator 25.2.3, SVG Export Plug-In . SVG Version: 6.00 Build 0)  -->
<svg version="1.1" id="Layer_1" xmlns="http://www.w3.org/2000/svg" xmlns:xlink="http://www.w3.org/1999/xlink" x="0px" y="0px"
	 viewBox="0 0 24 24" style="enable-background:new 0 0 24 24;" xml:space="preserve">
<style type="text/css">
	.st0{fill:#EEEEEE;}
</style>
<g>
	<g>
		<g>
			<path class="st0" d="M8.4,11.2H4.7c-1.6,0-2.8-1.2-2.8-2.8V4.7c0-1.6,1.2-2.8,2.8-2.8h3.7c1.6,0,2.8,1.2,2.8,2.8v3.7
				C11.2,9.9,9.9,11.2,8.4,11.2z"/>
			<path class="st0" d="M8.4,22.1H4.7c-1.6,0-2.8-1.2-2.8-2.8v-3.7c0-1.6,1.2-2.8,2.8-2.8h3.7c1.6,0,2.8,1.2,2.8,2.8v3.7
				C11.2,20.8,9.9,22.1,8.4,22.1z"/>
			<path class="st0" d="M19.3,11.2h-3.7c-1.6,0-2.8-1.2-2.8-2.8V4.7c0-1.6,1.2-2.8,2.8-2.8h3.7c1.6,0,2.8,1.2,2.8,2.8v3.7
				C22.1,9.9,20.9,11.2,19.3,11.2z"/>
			<path class="st0" d="M19.3,22.1h-3.7c-1.6,0-2.8-1.2-2.8-2.8v-3.7c0-1.6,1.2-2.8,2.8-2.8h3.7c1.6,0,2.8,1.2,2.8,2.8v3.7
				C22.1,20.8,20.9,22.1,19.3,22.1z"/>
		</g>
	</g>
</g>
</svg>
