<?xml version="1.0" encoding="utf-8"?>
<!-- Generator: Adobe Illustrator 25.2.3, SVG Export Plug-In . SVG Version: 6.00 Build 0)  -->
<svg version="1.1" id="Layer_1" xmlns="http://www.w3.org/2000/svg" xmlns:xlink="http://www.w3.org/1999/xlink" x="0px" y="0px"
	 viewBox="0 0 24 24" style="enable-background:new 0 0 24 24;" xml:space="preserve">
<style type="text/css">
	.st0{display:none;}
	.st1{display:inline;}
	.st2{fill:#4E5459;}
	.st3{display:inline;fill:#4E5459;}
	.st4{fill:none;}
	.st5{fill:#A4B1BD;}
</style>
<g class="st0">
	<g class="st1">
		<path class="st2" d="M15.8,3.9L15.8,3.9L15.8,3.9c-0.1-0.2-0.1-0.4-0.2-0.6l0,0c-0.2-0.4-0.4-0.7-0.7-1l0,0
			c-0.1-0.1-0.3-0.3-0.4-0.4c0,0,0,0-0.1,0c-0.3-0.2-0.7-0.4-1-0.6h-0.1c-0.2-0.1-0.4-0.1-0.5-0.1h-0.1C12.4,1,12.2,1,12,1
			s-0.4,0-0.6,0.1h-0.1c-0.2,0-0.4,0.1-0.5,0.1h-0.1c-0.4,0.1-0.7,0.3-1,0.6c0,0,0,0-0.1,0C9.4,2,9.3,2.1,9.2,2.2l0,0
			c-0.3,0.3-0.5,0.6-0.7,1l0,0C8.3,3.5,8.3,3.7,8.2,3.9l0,0l0,0c-0.1,0.3-0.1,0.7-0.1,1v3.9v3.3c0,2.2,1.8,3.9,3.9,3.9
			c2.2,0,3.9-1.8,3.9-3.9V8.9v-4C15.9,4.6,15.9,4.2,15.8,3.9z"/>
	</g>
	<path class="st3" d="M18.5,12.2c0-0.3-0.2-0.5-0.5-0.5s-0.5,0.2-0.5,0.5c0,3-2.4,5.5-5.5,5.5s-5.5-2.4-5.5-5.5
		c0-0.3-0.2-0.5-0.5-0.5s-0.5,0.2-0.5,0.5c0,3.1,2.2,5.7,5.1,6.3v3.2H9.1c-0.3,0-0.5,0.2-0.5,0.5v0.4c0,0.3,0.2,0.5,0.5,0.5h1.6h2.7
		H15c0.3,0,0.5-0.2,0.5-0.5v-0.4c0-0.3-0.2-0.5-0.5-0.5h-1.6v-3.2C16.3,17.9,18.5,15.3,18.5,12.2z"/>
</g>
<path class="st4" d="M-20.1,13v-1.5l-4.3,4.3c0.4,0.2,0.9,0.4,1.3,0.4C-21.4,16.1-20.1,14.7-20.1,13z"/>
<path class="st4" d="M-20.1,6.1c0-1.7-1.3-3.1-2.9-3.1s-2.9,1.4-2.9,3.1v3.5V13c0,0.4,0.1,0.9,0.3,1.2l5.6-5.6V6.1H-20.1z"/>
<g>
	<path class="st5" d="M20.2,3.8c-0.2-0.2-0.5-0.2-0.7,0L3.8,19.5c-0.2,0.2-0.2,0.5,0,0.7c0.1,0.1,0.2,0.1,0.4,0.1s0.3,0,0.4-0.1
		L20.2,4.5C20.4,4.3,20.4,4,20.2,3.8z"/>
	<path class="st5" d="M9.3,13.3C9.1,12.9,9,12.5,9,12.1V8.6V5.1C9.1,3.4,10.4,2,12,2s2.9,1.4,2.9,3.1v2.5l1-1V5.1
		C15.9,2.8,14.2,1,12,1S8.1,2.8,8.1,5.1v3.5V12c0,0.7,0.2,1.4,0.5,2L9.3,13.3z"/>
	<path class="st5" d="M15.9,12V9.5l-1,1V12c0,1.7-1.3,3.1-2.9,3.1c-0.5,0-0.9-0.1-1.3-0.4L10,15.4c0.6,0.4,1.3,0.6,2.1,0.6
		C14.2,16.1,15.9,14.3,15.9,12z"/>
	<path class="st5" d="M7.4,15.2c-0.6-0.9-0.9-1.9-0.9-3c0-0.3-0.2-0.5-0.5-0.5s-0.5,0.2-0.5,0.5c0,1.4,0.4,2.6,1.2,3.7L7.4,15.2z"/>
	<path class="st5" d="M18,11.7c-0.3,0-0.5,0.2-0.5,0.5c0,3-2.4,5.5-5.5,5.5c-1.2,0-2.3-0.4-3.2-1l-0.7,0.7c0.7,0.6,1.6,1,2.5,1.2
		v3.2H9.1c-0.3,0-0.5,0.2-0.5,0.5v0.4c0,0.3,0.2,0.5,0.5,0.5h1.6h2.7H15c0.3,0,0.5-0.2,0.5-0.5v-0.4c0-0.3-0.2-0.5-0.5-0.5h-1.6
		v-3.2c2.9-0.6,5.1-3.2,5.1-6.3C18.5,11.9,18.2,11.7,18,11.7z"/>
</g>
</svg>
