<?xml version="1.0" encoding="utf-8"?>
<!-- Generator: Adobe Illustrator 25.2.3, SVG Export Plug-In . SVG Version: 6.00 Build 0)  -->
<svg version="1.1" id="Layer_2_1_" xmlns="http://www.w3.org/2000/svg" xmlns:xlink="http://www.w3.org/1999/xlink" x="0px" y="0px"
	 viewBox="0 0 24 24" style="enable-background:new 0 0 24 24;" xml:space="preserve">
<style type="text/css">
	.st0{fill:#EEEEEE;}
</style>
<g>
	<g>
		<g>
			<path class="st0" d="M14.8,13.1H9.2c-1.6,0-2.8-1.2-2.8-2.8V4.7c0-1.6,1.2-2.8,2.8-2.8h5.5c1.6,0,2.8,1.2,2.8,2.8v5.6
				C17.5,11.9,16.3,13.1,14.8,13.1z"/>
			<path class="st0" d="M13.8,22.1h-3.6c-1,0-1.8-0.8-1.8-1.8v-3.6c0-1,0.8-1.8,1.8-1.8h3.6c1,0,1.8,0.8,1.8,1.8v3.6
				C15.6,21.2,14.8,22.1,13.8,22.1z"/>
			<path class="st0" d="M5.4,22.1H1.8c-1,0-1.8-0.8-1.8-1.8v-3.6c0-1,0.8-1.8,1.8-1.8h3.6c1,0,1.8,0.8,1.8,1.8v3.6
				C7.3,21.2,6.5,22.1,5.4,22.1z"/>
			<path class="st0" d="M22.2,22.1h-3.6c-1,0-1.8-0.8-1.8-1.8v-3.6c0-1,0.8-1.8,1.8-1.8h3.6c1,0,1.8,0.8,1.8,1.8v3.6
				C24,21.2,23.2,22.1,22.2,22.1z"/>
		</g>
	</g>
</g>
</svg>
