<?xml version="1.0" encoding="utf-8"?>
<!-- Generator: Adobe Illustrator 25.2.3, SVG Export Plug-In . SVG Version: 6.00 Build 0)  -->
<svg version="1.1" id="Layer_1" xmlns="http://www.w3.org/2000/svg" xmlns:xlink="http://www.w3.org/1999/xlink" x="0px" y="0px"
	 viewBox="0 0 24 24" style="enable-background:new 0 0 24 24;" xml:space="preserve">
<style type="text/css">
	.st0{fill:#EEEEEE;}
	.st1{fill:#141617;}
</style>
<g>
	<path class="st0" d="M-21.3,5.7c-0.2-0.2-4.1-4.5-9.2-4.8c-0.2,0-0.4,0-0.5,0s-0.4,0-0.5,0c-5.1,0.3-9,4.6-9.2,4.8L-41,6l0.3,0.3
		c0.2,0.2,4.1,4.5,9.2,4.8c0.2,0,0.4,0,0.5,0c0.2,0,0.4,0,0.5,0c5.1-0.3,9-4.6,9.2-4.8L-21,6L-21.3,5.7z M-26.7,6
		c0,2.4-1.9,4.3-4.3,4.3c-2.4,0-4.3-1.9-4.3-4.3c0-2.4,1.9-4.3,4.3-4.3C-28.6,1.7-26.7,3.6-26.7,6z M-34.8,2.5
		c-0.8,0.9-1.3,2.1-1.3,3.5c0,1.3,0.5,2.5,1.3,3.5c-2.5-1-4.3-2.8-5-3.5C-39.2,5.3-37.3,3.6-34.8,2.5z M-27.2,9.5
		c0.8-0.9,1.3-2.1,1.3-3.5c0-1.3-0.5-2.5-1.3-3.5c2.5,1,4.3,2.8,5,3.5C-22.8,6.7-24.7,8.4-27.2,9.5z"/>
	<g>
		<path class="st0" d="M-29.3,5.6c-0.8,0-1.5-0.7-1.5-1.5c0-0.3,0.1-0.6,0.2-0.8c-0.1,0-0.2,0-0.4,0c-1.5,0-2.8,1.2-2.8,2.8
			s1.2,2.8,2.8,2.8c1.5,0,2.8-1.2,2.8-2.8c0-0.3,0-0.5-0.1-0.8C-28.6,5.4-29,5.6-29.3,5.6z"/>
	</g>
</g>
<g>
	<g>
		<path class="st0" d="M22,12c0,0-4.5,5-10,5S2,12,2,12s4.5-5,10-5S22,12,22,12z"/>
	</g>
	<g>
		<circle class="st1" cx="12" cy="12" r="4.8"/>
	</g>
	<g>
		<path class="st0" d="M13.5,11.6c-0.8,0-1.4-0.6-1.4-1.4c0-0.3,0.1-0.5,0.2-0.7c-0.1,0-0.2,0-0.3,0c-1.4,0-2.5,1.1-2.5,2.5
			s1.1,2.5,2.5,2.5c1.4,0,2.5-1.1,2.5-2.5c0-0.2,0-0.5-0.1-0.7C14.2,11.5,13.8,11.6,13.5,11.6z"/>
	</g>
</g>
</svg>
