<?xml version="1.0" encoding="utf-8"?>
<!-- Generator: Adobe Illustrator 25.2.3, SVG Export Plug-In . SVG Version: 6.00 Build 0)  -->
<svg version="1.1" id="Layer_1" xmlns="http://www.w3.org/2000/svg" xmlns:xlink="http://www.w3.org/1999/xlink" x="0px" y="0px"
	 viewBox="0 0 24 24" style="enable-background:new 0 0 24 24;" xml:space="preserve">
<style type="text/css">
	.st0{display:none;}
	.st1{display:inline;}
	.st2{fill:#4E5459;}
	.st3{display:inline;fill:#4E5459;}
	.st4{fill:#EEEEEE;}
	.st5{fill:#090A0A;}
</style>
<g class="st0">
	<g class="st1">
		<path class="st2" d="M15.8,3.9L15.8,3.9L15.8,3.9c-0.1-0.2-0.1-0.4-0.2-0.6l0,0c-0.2-0.4-0.4-0.7-0.7-1l0,0
			c-0.1-0.1-0.3-0.3-0.4-0.4c0,0,0,0-0.1,0c-0.3-0.2-0.7-0.4-1-0.6h-0.1c-0.2-0.1-0.4-0.1-0.5-0.1h-0.1C12.4,1,12.2,1,12,1
			s-0.4,0-0.6,0.1h-0.1c-0.2,0-0.4,0.1-0.5,0.1h-0.1c-0.4,0.1-0.7,0.3-1,0.6c0,0,0,0-0.1,0C9.4,2,9.3,2.1,9.2,2.2l0,0
			c-0.3,0.3-0.5,0.6-0.7,1l0,0C8.3,3.5,8.3,3.7,8.2,3.9l0,0l0,0c-0.1,0.3-0.1,0.7-0.1,1v3.9v3.3c0,2.2,1.8,3.9,3.9,3.9
			c2.2,0,3.9-1.8,3.9-3.9V8.9v-4C15.9,4.6,15.9,4.2,15.8,3.9z"/>
	</g>
	<path class="st3" d="M18.5,12.2c0-0.3-0.2-0.5-0.5-0.5s-0.5,0.2-0.5,0.5c0,3-2.4,5.5-5.5,5.5s-5.5-2.4-5.5-5.5
		c0-0.3-0.2-0.5-0.5-0.5s-0.5,0.2-0.5,0.5c0,3.1,2.2,5.7,5.1,6.3v3.2H9.1c-0.3,0-0.5,0.2-0.5,0.5v0.4c0,0.3,0.2,0.5,0.5,0.5h1.6h2.7
		H15c0.3,0,0.5-0.2,0.5-0.5v-0.4c0-0.3-0.2-0.5-0.5-0.5h-1.6v-3.2C16.3,17.9,18.5,15.3,18.5,12.2z"/>
</g>
<path class="st4" d="M12,2C6,2,1.2,5.8,1.2,10.4c0,3,2.1,5.7,5.2,7.2l-1.2,3.7c-0.2,0.8,0,0.9,0.6,0.6l4.4-3.1
	c0.6,0.1,1.2,0.1,1.8,0.1c6,0,10.8-3.8,10.8-8.4C22.8,5.8,18,2,12,2z M8.1,11.8c-0.7,0-1.2-0.5-1.2-1.2c0-0.7,0.5-1.2,1.2-1.2
	c0.7,0,1.2,0.6,1.2,1.2C9.3,11.3,8.8,11.8,8.1,11.8z M12,11.8c-0.7,0-1.2-0.5-1.2-1.2c0-0.7,0.5-1.2,1.2-1.2s1.2,0.6,1.2,1.2
	C13.2,11.3,12.7,11.8,12,11.8z M15.9,11.8c-0.7,0-1.2-0.5-1.2-1.2c0-0.7,0.5-1.2,1.2-1.2c0.6,0,1.2,0.6,1.2,1.2
	C17.1,11.3,16.6,11.8,15.9,11.8z"/>
<g>
	<path class="st4" d="M-34.8-4.9c-6,0-10.8,3.8-10.8,8.4c0,3,2.1,5.7,5.2,7.2l-1.2,3.7c-0.2,0.8,0,0.9,0.6,0.6l4.4-3.1
		C-36,12-35.4,12-34.8,12c6,0,10.8-3.8,10.8-8.4C-24-1.1-28.8-4.9-34.8-4.9z"/>
	<g>
		<path class="st5" d="M-37.5,3.7c0,0.7-0.5,1.2-1.2,1.2c-0.7,0-1.2-0.5-1.2-1.2s0.5-1.2,1.2-1.2C-38,2.5-37.5,3.1-37.5,3.7z"/>
		<path class="st5" d="M-33.6,3.7c0,0.7-0.5,1.2-1.2,1.2S-36,4.4-36,3.7s0.5-1.2,1.2-1.2C-34.1,2.5-33.6,3.1-33.6,3.7z"/>
		<path class="st5" d="M-29.7,3.7c0,0.7-0.5,1.2-1.2,1.2c-0.7,0-1.2-0.5-1.2-1.2s0.5-1.2,1.2-1.2C-30.3,2.5-29.7,3.1-29.7,3.7z"/>
	</g>
</g>
</svg>
