<?xml version="1.0" encoding="utf-8"?>
<!-- Generator: Adobe Illustrator 25.2.3, SVG Export Plug-In . SVG Version: 6.00 Build 0)  -->
<svg version="1.1" id="Layer_2_1_" xmlns="http://www.w3.org/2000/svg" xmlns:xlink="http://www.w3.org/1999/xlink" x="0px" y="0px"
	 viewBox="0 0 24 24" style="enable-background:new 0 0 24 24;" xml:space="preserve">
<style type="text/css">
	.st0{fill:#EEEEEE;}
</style>
<g>
	<g>
		<path class="st0" d="M2.7,8.8H1V3.6c0-1.4,1.1-2.5,2.5-2.5h5.2v1.7H3.5C3,2.8,2.7,3.2,2.7,3.6C2.7,3.6,2.7,8.8,2.7,8.8z"/>
	</g>
	<g>
		<path class="st0" d="M23,8.8h-1.7V3.6c0-0.5-0.4-0.8-0.8-0.8h-5.2V1h5.2C21.9,1,23,2.1,23,3.5V8.8z"/>
	</g>
	<g>
		<path class="st0" d="M8.8,23H3.6c-1.4,0-2.5-1.1-2.5-2.5v-5.2h1.7v5.2c0,0.5,0.4,0.8,0.8,0.8h5.2V23z"/>
	</g>
	<g>
		<path class="st0" d="M20.5,23h-5.2v-1.7h5.2c0.5,0,0.8-0.4,0.8-0.8v-5.2H23v5.2C23,21.9,21.9,23,20.5,23z"/>
	</g>
</g>
</svg>
