<?xml version="1.0" encoding="utf-8"?>
<!-- Generator: Adobe Illustrator 25.2.3, SVG Export Plug-In . SVG Version: 6.00 Build 0)  -->
<svg version="1.1" id="Layer_1" xmlns="http://www.w3.org/2000/svg" xmlns:xlink="http://www.w3.org/1999/xlink" x="0px" y="0px"
	 viewBox="0 0 24 24" style="enable-background:new 0 0 24 24;" xml:space="preserve">
<style type="text/css">
	.st0{fill:none;stroke:#000000;stroke-width:3;stroke-linecap:round;stroke-linejoin:round;stroke-miterlimit:10;}
	.st1{fill:none;stroke:#4DA200;stroke-width:1.5;stroke-miterlimit:10;}
	.st2{fill:none;stroke:#4DA200;stroke-width:1.5;stroke-linecap:round;stroke-linejoin:round;stroke-miterlimit:10;}
	.st3{fill:#EEEEEE;}
</style>
<g>
	<path class="st0" d="M-12.6,16.2c0.9-0.9,2.3-1,3-0.3c0.7,0.7,0.6,2.1-0.3,3"/>
	<path class="st0" d="M-9.9,18.9l-8.6,8.6l-3.6,1.3c-0.3,0.1-0.5-0.1-0.4-0.4l1.3-3.6l8.6-8.6L-9.9,18.9z"/>
</g>
<path class="st1" d="M-17.1,31.8h-10.3c-1.2,0-2.2-1-2.2-2.2V19.3c0-1.2,1-2.2,2.2-2.2h10.3c1.2,0,2.2,1,2.2,2.2v10.3
	C-14.9,30.8-15.8,31.8-17.1,31.8z"/>
<g>
	<path class="st2" d="M-12.6,16.2c0.9-0.9,2.3-1,3-0.3c0.7,0.7,0.6,2.1-0.3,3"/>
	<path class="st2" d="M-9.9,18.9l-8.6,8.6l-3.6,1.3c-0.3,0.1-0.5-0.1-0.4-0.4l1.3-3.6l8.6-8.6L-9.9,18.9z"/>
</g>
<g>
	<path class="st3" d="M23,5.8c0.1-0.8-0.2-1.5-0.7-2c-1-1-2.9-0.9-4.1,0.3c0,0,0,0,0,0c0,0,0,0,0,0l-8.6,8.6
		c-0.1,0.1-0.1,0.2-0.2,0.3l-1.2,3.6c-0.1,0.4-0.1,0.8,0.2,1.1C8.6,17.9,8.8,18,9.1,18c0.1,0,0.3,0,0.4-0.1l3.6-1.2
		c0.1,0,0.2-0.1,0.3-0.2L22,7.8c0,0,0,0,0,0c0,0,0,0,0,0C22.6,7.2,22.9,6.5,23,5.8z M21.2,4.8c0.3,0.3,0.3,0.6,0.3,0.8
		c0,0.2-0.1,0.3-0.1,0.5l-1.4-1.4C20.4,4.5,20.9,4.5,21.2,4.8z M12.4,15.3l-2.5,0.9l0.9-2.5l8-8l1.6,1.6L12.4,15.3z"/>
	<path class="st3" d="M15.7,18c0,0.8-0.7,1.5-1.5,1.5H4c-0.8,0-1.5-0.7-1.5-1.5V7.7c0-0.8,0.7-1.5,1.5-1.5h10.3c0.2,0,0.4,0,0.6,0.1
		l0,0L16,5.3c-0.5-0.3-1.1-0.5-1.7-0.5H4c-1.6,0-3,1.3-3,3V18c0,1.6,1.3,3,3,3h10.3c1.6,0,3-1.3,3-3v-4.4l-1.5,1.5V18z"/>
</g>
</svg>
