<?xml version="1.0" encoding="utf-8"?>
<!-- Generator: Adobe Illustrator 25.2.3, SVG Export Plug-In . SVG Version: 6.00 Build 0)  -->
<svg version="1.1" id="Layer_1" xmlns="http://www.w3.org/2000/svg" xmlns:xlink="http://www.w3.org/1999/xlink" x="0px" y="0px"
	 viewBox="0 0 24 24" style="enable-background:new 0 0 24 24;" xml:space="preserve">
<style type="text/css">
	.st0{fill:none;stroke:#EEEEEE;stroke-linecap:round;stroke-miterlimit:10;}
	.st1{fill:#EEEEEE;}
</style>
<g>
	<line class="st0" x1="5" y1="5" x2="19" y2="19"/>
	<line class="st0" x1="19" y1="5" x2="5" y2="19"/>
</g>
<g>
	<path class="st1" d="M-3.9,5.8c0.1-0.8-0.2-1.5-0.7-2c-1-1-2.9-0.9-4.1,0.3c0,0,0,0,0,0c0,0,0,0,0,0l-8.6,8.6
		c-0.1,0.1-0.1,0.2-0.2,0.3l-1.2,3.6c-0.1,0.4-0.1,0.8,0.2,1.1c0.2,0.2,0.5,0.3,0.7,0.3c0.1,0,0.3,0,0.4-0.1l3.6-1.2
		c0.1,0,0.2-0.1,0.3-0.2l8.6-8.6c0,0,0,0,0,0c0,0,0,0,0,0C-4.3,7.2-4,6.5-3.9,5.8z M-5.7,4.8c0.3,0.3,0.3,0.6,0.3,0.8
		c0,0.2-0.1,0.3-0.1,0.5L-7,4.7C-6.5,4.5-6,4.5-5.7,4.8z M-14.5,15.3l-2.5,0.9l0.9-2.5l8-8l1.6,1.6L-14.5,15.3z"/>
	<path class="st1" d="M-11.2,18c0,0.8-0.7,1.5-1.5,1.5h-10.3c-0.8,0-1.5-0.7-1.5-1.5V7.7c0-0.8,0.7-1.5,1.5-1.5h10.3
		c0.2,0,0.4,0,0.6,0.1l0,0l1.1-1.1c-0.5-0.3-1.1-0.5-1.7-0.5h-10.3c-1.6,0-3,1.3-3,3V18c0,1.6,1.3,3,3,3h10.3c1.6,0,3-1.3,3-3v-4.4
		l-1.5,1.5V18z"/>
</g>
</svg>
